SplineFontDB: 3.2
FontName: NewHall-Bold
FullName: NewHall Bold 
FamilyName: NewHall
Weight: Bold
Copyright: (c) RISC OS Developments Ltd, released under Apache License 2.0
Version: 1
ItalicAngle: 0
UnderlinePosition: 0
UnderlineWidth: 0
Ascent: 400
Descent: 100
InvalidEm: 0
LayerCount: 2
Layer: 0 0 "Back" 1
Layer: 1 0 "Fore" 0
StyleMap: 0x0020
FSType: 0
OS2Version: 0
OS2_WeightWidthSlopeOnly: 0
OS2_UseTypoMetrics: 0
CreationTime: 1653360705
ModificationTime: 1653360706
PfmFamily: 17
TTFWeight: 700
TTFWidth: 5
LineGap: 45
VLineGap: 45
OS2TypoAscent: 0
OS2TypoAOffset: 1
OS2TypoDescent: 0
OS2TypoDOffset: 1
OS2TypoLinegap: 45
OS2WinAscent: 0
OS2WinAOffset: 1
OS2WinDescent: 0
OS2WinDOffset: 1
HheadAscent: 0
HheadAOffset: 1
HheadDescent: 0
HheadDOffset: 1
DEI: 91125
Encoding: Custom
UnicodeInterp: none
NameList: AGL For New Fonts
DisplaySize: -24
AntiAlias: 1
FitToEm: 0
BeginChars: 256 208

StartChar: exclam
Encoding: 33 33 1
Width: 148
VWidth: 0
Flags: HMW
LayerCount: 2
Fore
SplineSet
108 354 m 0
 148 315 85 226 89 114 c 0
 63 114 l 0
 67 226 4 315 44 354 c 0
 64 374 89 374 108 354 c 0
42 5 m 0
 24 23 24 54 43 72 c 0
 61 91 91 91 110 72 c 0
 128 54 128 24 109 5 c 0
 91 -13 61 -13 42 5 c 0
EndSplineSet
EndChar

StartChar: quotedbl
Encoding: 34 34 2
Width: 166
VWidth: 0
Flags: HMW
LayerCount: 2
Fore
SplineSet
-5 317 m 0
 -17 387 71 387 58 317 c 0
 39 209 l 0
 14 209 l 0
 -5 317 l 0
109 317 m 0
 97 387 185 387 172 317 c 0
 153 209 l 0
 128 209 l 0
 109 317 l 0
EndSplineSet
EndChar

StartChar: numbersign
Encoding: 35 35 3
Width: 287
VWidth: 0
Flags: HMW
LayerCount: 2
Fore
SplineSet
128 200 m 0
 122 158 l 0
 165 158 l 0
 171 200 l 0
 128 200 l 0
35 246 m 0
 92 246 l 0
 108 353 l 0
 152 353 l 0
 135 246 l 0
 178 246 l 0
 195 353 l 0
 238 353 l 0
 222 246 l 0
 267 246 l 0
 267 200 l 0
 215 200 l 0
 208 158 l 0
 253 158 l 0
 253 112 l 0
 200 112 l 0
 184 0 l 0
 140 0 l 0
 157 112 l 0
 114 112 l 0
 97 0 l 0
 54 0 l 0
 70 112 l 0
 21 112 l 0
 21 158 l 0
 79 158 l 0
 85 200 l 0
 35 200 l 0
 35 246 l 0
EndSplineSet
EndChar

StartChar: dollar
Encoding: 36 36 4
Width: 287
VWidth: 0
Flags: HMW
LayerCount: 2
Fore
SplineSet
161 17 m 0
 171 17 194 26 206 42 c 0
 219 59 221 85 203 107 c 0
 195 116 179 125 161 130 c 0
 161 17 l 0
134 220 m 0
 134 325 l 0
 128 325 114 320 102 311 c 0
 81 295 79 267 89 246 c 0
 98 230 116 225 134 220 c 0
88 102 m 0
 95 91 96 67 83 57 c 0
 70 48 67 45 77 32 c 0
 86 19 121 17 134 17 c 0
 134 138 l 0
 104 150 50 161 33 197 c 0
 11 244 30 302 74 328 c 0
 96 340 125 347 134 347 c 0
 134 401 l 0
 161 401 l 0
 161 347 l 0
 169 347 217 343 244 321 c 0
 272 299 276 265 262 247 c 0
 245 226 214 224 198 250 c 0
 179 283 203 288 203 302 c 0
 203 317 172 325 161 325 c 0
 161 212 l 0
 196 200 244 181 263 147 c 0
 285 109 274 59 246 30 c 0
 218 -1 174 -7 161 -7 c 0
 161 -70 l 0
 134 -70 l 0
 134 -8 l 0
 127 -8 60 -4 30 30 c 0
 8 54 8 92 23 107 c 0
 44 127 74 123 88 102 c 0
EndSplineSet
EndChar

StartChar: percent
Encoding: 37 37 5
Width: 416
VWidth: 0
Flags: HMW
LayerCount: 2
Fore
SplineSet
191 289 m 0
 194 253 179 203 148 172 c 0
 112 136 58 134 27 165 c 0
 -5 196 8 261 54 306 c 0
 89 341 144 352 171 325 c 0
 185 310 191 288 247 302 c 0
 266 306 296 333 311 353 c 0
 335 353 l 0
 118 -8 l 0
 95 -8 l 0
 279 300 l 0
 254 282 216 278 191 289 c 0
366 28 m 0
 325 -13 272 -3 247 21 c 0
 214 55 230 118 274 163 c 0
 310 199 365 208 392 181 c 0
 430 143 404 66 366 28 c 0
356 43 m 0
 387 74 403 143 379 167 c 0
 368 178 350 176 334 160 c 0
 305 131 270 45 288 27 c 0
 298 16 324 11 356 43 c 0
173 295 m 0
 162 302 150 313 144 321 c 0
 98 315 48 191 69 170 c 0
 77 161 108 154 139 185 c 0
 164 210 183 257 173 295 c 0
EndSplineSet
EndChar

StartChar: ampersand
Encoding: 38 38 6
Width: 426
VWidth: 0
Flags: HMW
LayerCount: 2
Fore
SplineSet
201 225 m 0
 261 250 258 313 235 336 c 0
 220 351 196 350 182 336 c 0
 168 322 165 288 188 246 c 0
 201 225 l 0
300 78 m 0
 333 35 357 40 369 49 c 0
 380 58 386 77 387 87 c 0
 411 82 l 0
 410 61 403 39 386 18 c 0
 355 -20 282 -17 240 27 c 0
 193 -9 100 -29 46 25 c 0
 6 65 16 123 47 154 c 0
 69 176 91 185 125 199 c 0
 90 268 104 310 133 339 c 0
 173 379 241 374 271 352 c 0
 313 322 307 269 279 245 c 0
 261 229 243 219 211 208 c 0
 228 179 260 130 283 99 c 0
 327 150 312 177 278 178 c 0
 265 178 l 0
 265 201 l 0
 401 201 l 0
 401 174 l 0
 340 174 340 127 300 78 c 0
223 44 m 0
 190 86 154 140 134 181 c 0
 86 155 101 86 133 54 c 0
 158 29 193 18 223 44 c 0
EndSplineSet
EndChar

StartChar: quotesingle
Encoding: 39 39 7
Width: 120
VWidth: 0
Flags: HMW
LayerCount: 2
Fore
SplineSet
91 317 m 0
 72 209 l 0
 47 209 l 0
 28 317 l 0
 16 387 104 387 91 317 c 0
EndSplineSet
EndChar

StartChar: parenleft
Encoding: 40 40 8
Width: 194
VWidth: 0
Flags: HMW
LayerCount: 2
Fore
SplineSet
169 348 m 0
 161 342 154 336 144 326 c 0
 82 264 76 50 145 -19 c 0
 152 -26 159 -33 169 -40 c 0
 169 -61 l 0
 147 -47 119 -28 96 -5 c 0
 17 74 16 233 96 313 c 0
 119 336 147 355 169 369 c 0
 169 348 l 0
EndSplineSet
EndChar

StartChar: parenright
Encoding: 41 41 9
Width: 194
VWidth: 0
Flags: HMW
LayerCount: 2
Fore
SplineSet
25 -61 m 0
 25 -40 l 0
 35 -33 42 -26 49 -19 c 0
 118 50 112 264 50 326 c 0
 40 336 33 342 25 348 c 0
 25 369 l 0
 47 355 75 336 98 313 c 0
 178 233 177 74 98 -5 c 0
 75 -28 47 -47 25 -61 c 0
EndSplineSet
EndChar

StartChar: asterisk
Encoding: 42 42 10
Width: 250
VWidth: 0
Flags: HMW
LayerCount: 2
Fore
SplineSet
224 225 m 0
 226 213 217 197 206 193 c 0
 176 185 167 232 144 245 c 0
 135 251 l 0
 130 249 l 0
 130 236 l 0
 130 210 166 179 144 157 c 0
 135 149 117 149 108 157 c 0
 86 179 122 210 122 236 c 0
 122 249 l 0
 117 251 l 0
 108 245 l 0
 85 232 76 185 46 193 c 0
 35 197 26 213 28 225 c 0
 36 255 81 239 104 252 c 0
 113 257 l 0
 113 263 l 0
 104 268 l 0
 81 281 36 265 28 295 c 0
 26 307 35 323 46 327 c 0
 76 335 85 288 108 275 c 0
 117 269 l 0
 122 271 l 0
 122 284 l 0
 122 310 86 341 108 363 c 0
 117 371 135 371 144 363 c 0
 166 341 130 310 130 284 c 0
 130 271 l 0
 135 269 l 0
 144 275 l 0
 167 288 176 335 206 327 c 0
 217 323 226 307 224 295 c 0
 216 265 171 281 148 268 c 0
 139 263 l 0
 139 257 l 0
 148 252 l 0
 171 239 216 255 224 225 c 0
EndSplineSet
EndChar

StartChar: plus
Encoding: 43 43 11
Width: 303
VWidth: 0
Flags: HMW
LayerCount: 2
Fore
SplineSet
123 257 m 0
 181 257 l 0
 181 160 l 0
 278 160 l 0
 278 102 l 0
 181 102 l 0
 181 5 l 0
 123 5 l 0
 123 102 l 0
 26 102 l 0
 26 160 l 0
 123 160 l 0
 123 257 l 0
EndSplineSet
EndChar

StartChar: comma
Encoding: 44 44 12
Width: 139
VWidth: 0
Flags: HMW
LayerCount: 2
Fore
SplineSet
69 -7 m 0
 58 -9 44 -7 34 1 c 0
 14 20 18 58 33 72 c 0
 52 90 82 91 102 71 c 0
 128 46 134 -30 33 -95 c 0
 19 -76 l 0
 56 -44 66 -35 69 -7 c 0
EndSplineSet
EndChar

StartChar: hyphen
Encoding: 45 45 13
Width: 166
VWidth: 0
Flags: HMW
LayerCount: 2
Fore
SplineSet
21 155 m 0
 146 155 l 0
 146 90 l 0
 21 90 l 0
 21 155 l 0
EndSplineSet
EndChar

StartChar: period
Encoding: 46 46 14
Width: 139
VWidth: 0
Flags: HMW
LayerCount: 2
Fore
SplineSet
37 72 m 0
 55 91 85 91 104 72 c 0
 122 54 122 24 103 5 c 0
 85 -13 55 -13 36 5 c 0
 18 23 18 54 37 72 c 0
EndSplineSet
EndChar

StartChar: slash
Encoding: 47 47 15
Width: 139
VWidth: 0
Flags: HMW
LayerCount: 2
Fore
SplineSet
114 369 m 0
 151 369 l 0
 25 -8 l 0
 -12 -8 l 0
 114 369 l 0
EndSplineSet
EndChar

StartChar: zero
Encoding: 48 48 16
Width: 287
VWidth: 0
Flags: HMW
LayerCount: 2
Fore
SplineSet
181 42 m 0
 188 61 188 106 188 114 c 0
 188 231 l 0
 188 239 188 284 181 303 c 0
 166 340 123 340 108 303 c 0
 101 284 101 239 101 231 c 0
 101 114 l 0
 101 106 101 61 108 42 c 0
 123 5 166 5 181 42 c 0
227 29 m 0
 181 -20 108 -20 62 29 c 0
 -2 98 -2 247 62 316 c 0
 108 365 181 365 227 316 c 0
 291 247 291 98 227 29 c 0
EndSplineSet
EndChar

StartChar: one
Encoding: 49 49 17
Width: 287
VWidth: 0
Flags: HMW
LayerCount: 2
Fore
SplineSet
105 254 m 0
 105 285 101 292 73 292 c 0
 42 292 l 0
 42 319 l 0
 84 319 131 321 166 353 c 0
 183 353 l 0
 183 65 l 0
 183 34 187 27 215 27 c 0
 246 27 l 0
 246 0 l 0
 42 0 l 0
 42 27 l 0
 73 27 l 0
 101 27 105 34 105 65 c 0
 105 254 l 0
EndSplineSet
EndChar

StartChar: two
Encoding: 50 50 18
Width: 287
VWidth: 0
Flags: HMW
LayerCount: 2
Fore
SplineSet
232 94 m 0
 241 130 l 0
 266 130 l 0
 253 -2 l 0
 227 0 l 0
 29 0 l 0
 10 -2 l 0
 10 22 l 0
 90 126 121 133 164 198 c 0
 186 231 194 275 176 302 c 0
 146 349 73 322 73 289 c 0
 73 273 96 279 107 263 c 0
 117 249 118 232 108 214 c 0
 96 193 60 187 39 209 c 0
 17 233 15 281 56 320 c 0
 104 367 183 359 227 328 c 0
 278 292 273 230 245 193 c 0
 208 144 172 145 82 72 c 0
 198 72 l 0
 222 72 227 76 232 94 c 0
EndSplineSet
EndChar

StartChar: three
Encoding: 51 51 19
Width: 287
VWidth: 0
Flags: HMW
LayerCount: 2
Fore
SplineSet
93 101 m 0
 111 56 74 48 74 40 c 0
 74 28 131 -10 166 40 c 0
 185 66 190 132 159 159 c 0
 137 179 101 158 91 166 c 0
 80 174 80 189 91 196 c 0
 106 205 134 178 161 200 c 0
 181 215 192 284 164 313 c 0
 137 340 89 324 89 307 c 0
 89 299 97 294 104 287 c 0
 114 277 113 248 99 236 c 0
 80 218 49 221 34 243 c 0
 21 262 25 287 43 312 c 0
 75 355 156 369 221 331 c 0
 273 300 265 229 228 204 c 0
 210 192 192 185 168 181 c 0
 196 178 215 172 236 156 c 0
 265 134 285 78 234 25 c 0
 190 -22 48 -25 16 54 c 0
 9 72 12 97 24 110 c 0
 47 132 84 124 93 101 c 0
EndSplineSet
EndChar

StartChar: four
Encoding: 52 52 20
Width: 287
VWidth: 0
Flags: HMW
LayerCount: 2
Fore
SplineSet
121 27 m 0
 143 27 148 33 148 51 c 0
 148 90 l 0
 10 90 l 0
 10 126 l 0
 199 353 l 0
 228 353 l 0
 225 335 224 299 224 285 c 0
 224 123 l 0
 273 123 l 0
 273 90 l 0
 224 90 l 0
 224 51 l 0
 224 33 229 27 251 27 c 0
 267 27 l 0
 267 0 l 0
 96 0 l 0
 96 27 l 0
 121 27 l 0
148 123 m 0
 148 250 l 0
 43 123 l 0
 148 123 l 0
EndSplineSet
EndChar

StartChar: five
Encoding: 53 53 21
Width: 287
VWidth: 0
Flags: HMW
LayerCount: 2
Fore
SplineSet
43 186 m 0
 58 353 l 0
 187 337 222 344 256 352 c 0
 260 337 251 310 229 292 c 0
 192 261 131 265 77 275 c 0
 71 208 l 0
 127 237 193 232 238 188 c 0
 289 138 268 54 223 21 c 0
 157 -29 58 -8 30 32 c 0
 7 66 15 104 31 117 c 0
 51 131 75 131 91 113 c 0
 104 99 105 76 98 66 c 0
 86 46 70 50 70 41 c 0
 70 33 123 -7 164 41 c 0
 184 63 191 146 168 174 c 0
 146 202 99 204 64 176 c 0
 68 162 59 152 48 152 c 0
 29 152 22 176 43 186 c 0
EndSplineSet
EndChar

StartChar: six
Encoding: 54 54 22
Width: 287
VWidth: 0
Flags: HMW
LayerCount: 2
Fore
SplineSet
189 111 m 0
 189 139 181 160 172 167 c 0
 157 179 133 180 119 165 c 0
 108 153 103 132 103 111 c 0
 103 81 l 0
 103 60 108 39 119 27 c 0
 133 12 157 13 172 25 c 0
 181 32 189 53 189 81 c 0
 189 111 l 0
190 251 m 0
 164 287 195 305 194 315 c 0
 194 326 167 340 137 315 c 0
 102 286 100 213 100 176 c 0
 140 219 197 219 236 189 c 0
 285 151 292 66 232 21 c 0
 178 -21 101 -18 54 32 c 0
 -16 106 9 281 99 332 c 0
 153 364 213 359 250 325 c 0
 272 305 272 268 253 249 c 0
 236 230 205 232 190 251 c 0
EndSplineSet
EndChar

StartChar: seven
Encoding: 55 55 23
Width: 287
VWidth: 0
Flags: HMW
LayerCount: 2
Fore
SplineSet
273 330 m 0
 249 281 209 211 194 142 c 0
 183 89 194 17 168 1 c 0
 146 -14 107 -11 96 16 c 0
 67 84 188 208 221 274 c 0
 94 274 l 0
 74 274 66 273 60 252 c 0
 47 202 l 0
 23 205 l 0
 42 353 l 0
 59 352 206 333 273 353 c 0
 273 330 l 0
EndSplineSet
EndChar

StartChar: eight
Encoding: 56 56 24
Width: 287
VWidth: 0
Flags: HMW
LayerCount: 2
Fore
SplineSet
205 46 m 0
 211 55 232 109 163 129 c 0
 107 145 l 0
 82 127 71 88 80 60 c 0
 99 -1 180 8 205 46 c 0
243 320 m 0
 271 294 273 225 201 203 c 0
 288 166 291 73 239 26 c 0
 185 -22 75 -17 35 29 c 0
 -7 77 15 145 87 156 c 0
 13 199 24 286 71 325 c 0
 121 365 198 362 243 320 c 0
102 307 m 0
 91 293 88 268 100 244 c 0
 112 222 145 221 179 211 c 0
 208 242 216 283 193 310 c 0
 170 339 121 330 102 307 c 0
EndSplineSet
EndChar

StartChar: nine
Encoding: 57 57 25
Width: 287
VWidth: 0
Flags: HMW
LayerCount: 2
Fore
SplineSet
170 178 m 0
 181 190 186 213 186 234 c 0
 186 264 l 0
 186 285 181 306 170 318 c 0
 156 333 132 332 117 320 c 0
 108 313 100 292 100 264 c 0
 100 234 l 0
 100 204 108 183 117 176 c 0
 132 164 156 163 170 178 c 0
100 94 m 0
 126 58 95 40 96 30 c 0
 96 19 122 5 152 30 c 0
 187 59 189 132 189 169 c 0
 149 124 92 124 53 154 c 0
 4 192 -3 279 57 324 c 0
 111 366 188 363 235 313 c 0
 305 239 280 64 190 13 c 0
 136 -19 77 -14 40 20 c 0
 18 40 18 77 37 96 c 0
 54 115 85 113 100 94 c 0
EndSplineSet
EndChar

StartChar: colon
Encoding: 58 58 26
Width: 139
VWidth: 0
Flags: HMW
LayerCount: 2
Fore
SplineSet
110 162 m 0
 91 144 61 144 43 162 c 0
 24 181 24 211 42 229 c 0
 61 248 91 248 109 229 c 0
 128 211 128 180 110 162 c 0
110 72 m 0
 128 54 128 24 109 5 c 0
 91 -13 61 -13 42 5 c 0
 24 23 24 54 43 72 c 0
 61 91 91 91 110 72 c 0
EndSplineSet
EndChar

StartChar: semicolon
Encoding: 59 59 27
Width: 139
VWidth: 0
Flags: HMW
LayerCount: 2
Fore
SplineSet
106 162 m 0
 87 144 57 144 39 162 c 0
 20 181 20 211 38 229 c 0
 57 248 87 248 105 229 c 0
 124 211 124 180 106 162 c 0
38 -95 m 0
 24 -76 l 0
 61 -44 71 -35 74 -7 c 0
 63 -9 49 -7 39 1 c 0
 19 20 23 58 38 72 c 0
 57 90 87 91 107 71 c 0
 133 46 139 -30 38 -95 c 0
EndSplineSet
EndChar

StartChar: less
Encoding: 60 60 28
Width: 303
VWidth: 0
Flags: HMW
LayerCount: 2
Fore
SplineSet
279 214 m 0
 97 131 l 0
 279 48 l 0
 279 -7 l 0
 24 110 l 0
 24 152 l 0
 279 269 l 0
 279 214 l 0
EndSplineSet
EndChar

StartChar: equal
Encoding: 61 61 29
Width: 303
VWidth: 0
Flags: HMW
LayerCount: 2
Fore
SplineSet
26 103 m 0
 278 103 l 0
 278 45 l 0
 26 45 l 0
 26 103 l 0
26 142 m 0
 26 200 l 0
 278 200 l 0
 278 142 l 0
 26 142 l 0
EndSplineSet
EndChar

StartChar: greater
Encoding: 62 62 30
Width: 303
VWidth: 0
Flags: HMW
LayerCount: 2
Fore
SplineSet
24 214 m 0
 24 269 l 0
 279 152 l 0
 279 110 l 0
 24 -7 l 0
 24 48 l 0
 206 131 l 0
 24 214 l 0
EndSplineSet
EndChar

StartChar: question
Encoding: 63 63 31
Width: 250
VWidth: 0
Flags: HMW
LayerCount: 2
Fore
SplineSet
76 5 m 0
 58 23 58 54 77 72 c 0
 95 91 125 91 144 72 c 0
 162 54 162 24 143 5 c 0
 125 -13 95 -13 76 5 c 0
126 131 m 0
 126 111 l 0
 100 111 l 0
 100 163 105 169 134 216 c 0
 162 262 160 309 138 330 c 0
 114 354 75 340 76 327 c 0
 76 322 122 303 91 257 c 0
 76 236 35 237 21 259 c 0
 6 281 11 309 24 327 c 0
 57 373 150 384 203 347 c 0
 244 318 251 248 212 217 c 0
 172 184 126 158 126 131 c 0
EndSplineSet
EndChar

StartChar: at
Encoding: 64 64 32
Width: 373
VWidth: 0
Flags: HMW
LayerCount: 2
Fore
SplineSet
204 152 m 0
 221 207 l 0
 226 224 229 239 226 246 c 0
 216 267 195 271 175 251 c 0
 153 227 121 159 127 119 c 0
 131 93 156 90 173 104 c 0
 183 113 193 122 204 152 c 0
240 254 m 0
 247 275 l 0
 294 275 l 0
 243 119 l 0
 234 93 272 92 301 129 c 0
 336 174 341 259 278 307 c 0
 221 350 134 347 80 283 c 0
 24 218 34 116 95 64 c 0
 168 0 273 21 319 92 c 0
 355 92 l 0
 299 -8 163 -48 70 42 c 0
 5 105 -14 218 58 305 c 0
 122 383 233 389 304 330 c 0
 374 271 380 169 317 110 c 0
 270 67 225 62 199 98 c 0
 164 67 113 62 90 107 c 0
 56 173 118 257 151 273 c 0
 185 289 216 289 240 254 c 0
EndSplineSet
EndChar

StartChar: A
Encoding: 65 65 33
Width: 379
VWidth: 0
Flags: HMW
LayerCount: 2
Fore
SplineSet
216 140 m 0
 169 265 l 0
 113 140 l 0
 216 140 l 0
379 27 m 0
 389 27 l 0
 389 0 l 0
 214 0 l 0
 214 27 l 0
 236 27 l 0
 249 27 257 34 250 51 c 0
 227 110 l 0
 100 110 l 0
 87 81 l 0
 78 59 88 27 110 27 c 0
 132 27 l 0
 132 0 l 0
 -9 0 l 0
 -9 27 l 0
 2 27 37 45 48 70 c 0
 184 369 l 0
 214 369 l 0
 338 61 l 0
 351 28 364 27 379 27 c 0
EndSplineSet
EndChar

StartChar: B
Encoding: 66 66 34
Width: 389
VWidth: 0
Flags: HMW
LayerCount: 2
Fore
SplineSet
196 172 m 0
 150 172 l 0
 150 65 l 0
 150 33 160 27 188 27 c 0
 217 27 244 31 261 55 c 0
 278 78 278 118 261 144 c 0
 248 164 228 172 196 172 c 0
63 65 m 0
 63 296 l 0
 63 327 59 334 31 334 c 0
 9 334 l 0
 9 361 l 0
 205 361 l 0
 276 361 303 352 327 329 c 0
 363 295 357 244 332 220 c 0
 308 196 273 193 243 188 c 0
 292 179 322 171 344 150 c 0
 376 119 377 62 341 31 c 0
 318 10 298 0 205 0 c 0
 9 0 l 0
 9 27 l 0
 31 27 l 0
 59 27 63 34 63 65 c 0
250 313 m 0
 236 331 208 334 188 334 c 0
 160 334 150 328 150 296 c 0
 150 196 l 0
 196 196 l 0
 214 196 241 204 252 223 c 0
 270 256 268 291 250 313 c 0
EndSplineSet
EndChar

StartChar: C
Encoding: 67 67 35
Width: 389
VWidth: 0
Flags: HMW
LayerCount: 2
Fore
SplineSet
300 18 m 0
 245 -21 127 -19 74 39 c 0
 -1 120 2 249 81 319 c 0
 160 388 258 376 302 339 c 0
 332 369 l 0
 353 369 l 0
 355 221 l 0
 328 219 l 0
 318 267 308 287 280 316 c 0
 246 349 187 357 152 315 c 0
 96 246 122 100 130 79 c 0
 152 25 220 -4 284 43 c 0
 313 64 327 100 332 128 c 0
 362 120 l 0
 353 81 332 40 300 18 c 0
EndSplineSet
EndChar

StartChar: D
Encoding: 68 68 36
Width: 416
VWidth: 0
Flags: HMW
LayerCount: 2
Fore
SplineSet
151 65 m 0
 151 33 161 27 189 27 c 0
 222 27 251 32 271 62 c 0
 291 90 296 132 296 156 c 0
 296 206 l 0
 296 240 287 282 268 303 c 0
 244 330 225 334 189 334 c 0
 161 334 151 328 151 296 c 0
 151 65 l 0
211 0 m 0
 10 0 l 0
 10 27 l 0
 32 27 l 0
 60 27 64 34 64 65 c 0
 64 296 l 0
 64 327 60 334 32 334 c 0
 10 334 l 0
 10 361 l 0
 195 361 l 0
 261 361 288 352 320 334 c 0
 416 280 418 120 352 52 c 0
 322 21 283 0 211 0 c 0
EndSplineSet
EndChar

StartChar: E
Encoding: 69 69 37
Width: 379
VWidth: 0
Flags: HMW
LayerCount: 2
Fore
SplineSet
149 65 m 0
 149 27 161 27 203 27 c 0
 242 27 270 37 291 60 c 0
 310 81 321 114 326 135 c 0
 354 133 l 0
 349 0 l 0
 8 0 l 0
 8 27 l 0
 30 27 l 0
 58 27 62 34 62 65 c 0
 62 296 l 0
 62 327 58 334 30 334 c 0
 8 334 l 0
 8 361 l 0
 351 361 l 0
 349 228 l 0
 322 228 l 0
 303 296 280 334 203 334 c 0
 181 334 l 0
 153 334 149 327 149 296 c 0
 149 198 l 0
 164 198 l 0
 199 198 227 221 227 268 c 0
 254 268 l 0
 254 96 l 0
 227 96 l 0
 227 140 199 172 164 172 c 0
 149 172 l 0
 149 65 l 0
EndSplineSet
EndChar

StartChar: F
Encoding: 70 70 38
Width: 361
VWidth: 0
Flags: HMW
LayerCount: 2
Fore
SplineSet
65 65 m 0
 65 296 l 0
 65 327 61 334 33 334 c 0
 11 334 l 0
 11 361 l 0
 345 361 l 0
 343 225 l 0
 317 225 l 0
 305 296 263 334 199 334 c 0
 184 334 l 0
 156 334 152 327 152 296 c 0
 152 198 l 0
 167 198 l 0
 213 198 230 230 230 263 c 0
 255 263 l 0
 255 93 l 0
 229 93 l 0
 229 124 205 172 167 172 c 0
 152 172 l 0
 152 65 l 0
 152 34 156 27 184 27 c 0
 206 27 l 0
 206 0 l 0
 11 0 l 0
 11 27 l 0
 33 27 l 0
 61 27 65 34 65 65 c 0
EndSplineSet
EndChar

StartChar: G
Encoding: 71 71 39
Width: 416
VWidth: 0
Flags: HMW
LayerCount: 2
Fore
SplineSet
247 138 m 0
 230 138 l 0
 230 165 l 0
 408 165 l 0
 408 138 l 0
 392 138 l 0
 364 138 360 131 360 100 c 0
 360 -8 l 0
 332 -8 l 0
 310 40 l 0
 236 -35 111 -19 54 59 c 0
 3 129 0 270 106 336 c 0
 192 391 278 368 309 339 c 0
 338 369 l 0
 362 369 l 0
 362 221 l 0
 338 221 l 0
 329 256 316 283 294 310 c 0
 260 351 194 359 158 320 c 0
 107 266 107 123 132 64 c 0
 160 3 225 3 257 35 c 0
 273 51 280 79 279 99 c 0
 279 130 275 138 247 138 c 0
EndSplineSet
EndChar

StartChar: H
Encoding: 72 72 40
Width: 435
VWidth: 0
Flags: HMW
LayerCount: 2
Fore
SplineSet
254 334 m 0
 234 334 l 0
 234 361 l 0
 425 361 l 0
 425 334 l 0
 405 334 l 0
 377 334 373 327 373 296 c 0
 373 65 l 0
 373 34 377 27 405 27 c 0
 425 27 l 0
 425 0 l 0
 234 0 l 0
 234 27 l 0
 254 27 l 0
 282 27 286 34 286 65 c 0
 286 170 l 0
 149 170 l 0
 149 65 l 0
 149 34 153 27 181 27 c 0
 201 27 l 0
 201 0 l 0
 10 0 l 0
 10 27 l 0
 30 27 l 0
 58 27 62 34 62 65 c 0
 62 296 l 0
 62 327 58 334 30 334 c 0
 10 334 l 0
 10 361 l 0
 201 361 l 0
 201 334 l 0
 181 334 l 0
 153 334 149 327 149 296 c 0
 149 198 l 0
 286 198 l 0
 286 296 l 0
 286 327 282 334 254 334 c 0
EndSplineSet
EndChar

StartChar: I
Encoding: 73 73 41
Width: 222
VWidth: 0
Flags: HMW
LayerCount: 2
Fore
SplineSet
68 296 m 0
 68 327 64 334 36 334 c 0
 16 334 l 0
 16 361 l 0
 207 361 l 0
 207 334 l 0
 187 334 l 0
 159 334 155 327 155 296 c 0
 155 65 l 0
 155 34 159 27 187 27 c 0
 207 27 l 0
 207 0 l 0
 16 0 l 0
 16 27 l 0
 36 27 l 0
 64 27 68 34 68 65 c 0
 68 296 l 0
EndSplineSet
EndChar

StartChar: J
Encoding: 74 74 42
Width: 324
VWidth: 0
Flags: HMW
LayerCount: 2
Fore
SplineSet
266 148 m 0
 266 86 260 55 221 23 c 0
 169 -21 43 -23 12 45 c 0
 -8 88 2 137 30 156 c 0
 51 170 89 168 104 137 c 0
 115 109 109 91 96 77 c 0
 74 53 40 85 40 59 c 0
 40 26 117 1 156 42 c 0
 174 61 179 90 179 113 c 0
 179 296 l 0
 179 327 175 334 147 334 c 0
 125 334 l 0
 125 361 l 0
 320 361 l 0
 320 334 l 0
 298 334 l 0
 270 334 266 327 266 296 c 0
 266 148 l 0
EndSplineSet
EndChar

StartChar: K
Encoding: 75 75 43
Width: 407
VWidth: 0
Flags: HMW
LayerCount: 2
Fore
SplineSet
246 27 m 0
 275 27 272 37 261 55 c 0
 193 172 l 0
 149 128 l 0
 149 65 l 0
 149 34 153 27 181 27 c 0
 200 27 l 0
 200 0 l 0
 8 0 l 0
 8 27 l 0
 30 27 l 0
 58 27 62 34 62 65 c 0
 62 296 l 0
 62 327 58 334 30 334 c 0
 8 334 l 0
 8 361 l 0
 200 361 l 0
 200 334 l 0
 181 334 l 0
 153 334 149 327 149 296 c 0
 149 168 l 0
 245 266 l 0
 294 315 284 334 246 334 c 0
 227 334 l 0
 227 361 l 0
 401 361 l 0
 401 334 l 0
 365 328 346 319 306 284 c 0
 249 229 l 0
 354 65 l 0
 374 33 376 27 397 27 c 0
 409 27 l 0
 409 0 l 0
 227 0 l 0
 227 27 l 0
 246 27 l 0
EndSplineSet
EndChar

StartChar: L
Encoding: 76 76 44
Width: 361
VWidth: 0
Flags: HMW
LayerCount: 2
Fore
SplineSet
204 27 m 0
 276 27 305 60 325 134 c 0
 351 134 l 0
 346 0 l 0
 10 0 l 0
 10 27 l 0
 32 27 l 0
 60 27 64 34 64 65 c 0
 64 296 l 0
 64 327 60 334 32 334 c 0
 10 334 l 0
 10 361 l 0
 210 361 l 0
 210 334 l 0
 183 334 l 0
 155 334 151 327 151 296 c 0
 151 65 l 0
 151 34 155 27 183 27 c 0
 204 27 l 0
EndSplineSet
EndChar

StartChar: M
Encoding: 77 77 45
Width: 490
VWidth: 0
Flags: HMW
LayerCount: 2
Fore
SplineSet
461 334 m 0
 433 334 429 327 429 296 c 0
 429 65 l 0
 429 34 433 27 461 27 c 0
 483 27 l 0
 483 0 l 0
 292 0 l 0
 292 27 l 0
 310 27 l 0
 338 27 342 34 342 65 c 0
 342 328 l 0
 229 0 l 0
 208 0 l 0
 91 327 l 0
 91 87 l 0
 91 52 102 27 146 27 c 0
 146 0 l 0
 5 0 l 0
 5 27 l 0
 49 27 60 52 60 87 c 0
 60 296 l 0
 60 327 56 334 28 334 c 0
 5 334 l 0
 5 361 l 0
 170 361 l 0
 246 136 l 0
 324 361 l 0
 483 361 l 0
 483 334 l 0
 461 334 l 0
EndSplineSet
EndChar

StartChar: N
Encoding: 78 78 46
Width: 416
VWidth: 0
Flags: HMW
LayerCount: 2
Fore
SplineSet
330 274 m 0
 330 309 319 334 274 334 c 0
 274 361 l 0
 417 361 l 0
 417 334 l 0
 372 334 361 309 361 274 c 0
 361 -4 l 0
 330 -4 l 0
 95 279 l 0
 95 87 l 0
 95 52 106 27 151 27 c 0
 151 0 l 0
 8 0 l 0
 8 27 l 0
 53 27 64 52 64 87 c 0
 64 309 l 0
 44 329 40 334 8 334 c 0
 8 361 l 0
 136 361 l 0
 330 126 l 0
 330 274 l 0
EndSplineSet
EndChar

StartChar: O
Encoding: 79 79 47
Width: 416
VWidth: 0
Flags: HMW
LayerCount: 2
Fore
SplineSet
310 21 m 0
 246 -18 171 -18 107 21 c 0
 -9 92 -9 269 107 340 c 0
 171 379 246 379 310 340 c 0
 426 269 426 92 310 21 c 0
260 324 m 0
 232 352 185 352 157 324 c 0
 141 308 129 283 124 254 c 0
 116 204 116 156 124 106 c 0
 129 77 141 52 157 36 c 0
 185 8 232 8 260 36 c 0
 276 52 288 77 293 106 c 0
 301 156 301 204 293 254 c 0
 288 283 276 308 260 324 c 0
EndSplineSet
EndChar

StartChar: P
Encoding: 80 80 48
Width: 379
VWidth: 0
Flags: HMW
LayerCount: 2
Fore
SplineSet
153 178 m 0
 193 178 233 174 257 199 c 0
 279 222 279 301 253 320 c 0
 239 330 229 334 185 334 c 0
 157 334 153 327 153 296 c 0
 153 178 l 0
34 334 m 0
 12 334 l 0
 12 361 l 0
 223 361 l 0
 299 361 327 343 344 322 c 0
 381 277 372 221 340 189 c 0
 300 149 227 151 153 154 c 0
 153 65 l 0
 153 34 157 27 185 27 c 0
 207 27 l 0
 207 0 l 0
 12 0 l 0
 12 27 l 0
 34 27 l 0
 62 27 66 34 66 65 c 0
 66 296 l 0
 66 327 62 334 34 334 c 0
EndSplineSet
EndChar

StartChar: Q
Encoding: 81 81 49
Width: 416
VWidth: 0
Flags: HMW
LayerCount: 2
Fore
SplineSet
391 -64 m 0
 361 -105 283 -103 254 -70 c 0
 236 -48 235 -31 238 -5 c 0
 195 -14 142 0 107 21 c 0
 -9 92 -9 269 107 340 c 0
 171 379 244 379 308 340 c 0
 424 269 424 92 308 21 c 0
 323 -18 l 0
 337 -55 371 -62 374 -10 c 0
 405 -10 l 0
 406 -25 404 -46 391 -64 c 0
258 324 m 0
 230 352 185 352 157 324 c 0
 109 275 110 151 129 87 c 0
 144 154 253 169 284 80 c 0
 304 154 306 276 258 324 c 0
146 50 m 0
 166 15 207 10 237 22 c 0
 262 151 138 143 146 50 c 0
EndSplineSet
EndChar

StartChar: R
Encoding: 82 82 50
Width: 407
VWidth: 0
Flags: HMW
LayerCount: 2
Fore
SplineSet
151 196 m 0
 186 198 230 190 253 217 c 0
 278 246 274 302 245 323 c 0
 233 331 216 334 183 334 c 0
 157 334 151 327 151 296 c 0
 151 196 l 0
177 172 m 0
 151 172 l 0
 151 65 l 0
 151 34 155 27 183 27 c 0
 205 27 l 0
 205 0 l 0
 10 0 l 0
 10 27 l 0
 32 27 l 0
 60 27 64 34 64 65 c 0
 64 296 l 0
 64 327 60 334 32 334 c 0
 10 334 l 0
 10 361 l 0
 233 361 l 0
 278 361 314 352 336 332 c 0
 374 295 368 248 348 219 c 0
 330 192 287 181 260 179 c 0
 279 173 297 162 312 144 c 0
 338 114 334 56 349 41 c 0
 360 31 368 34 374 44 c 0
 380 54 382 70 382 83 c 0
 409 83 l 0
 409 65 413 50 395 24 c 0
 374 -6 309 -27 266 16 c 0
 226 54 257 122 230 156 c 0
 217 172 196 172 177 172 c 0
EndSplineSet
EndChar

StartChar: S
Encoding: 83 83 51
Width: 333
VWidth: 0
Flags: HMW
LayerCount: 2
Fore
SplineSet
247 339 m 0
 276 369 l 0
 298 369 l 0
 301 231 l 0
 277 231 l 0
 264 266 249 293 224 316 c 0
 176 359 120 344 99 325 c 0
 78 305 81 282 88 267 c 0
 112 217 255 245 306 161 c 0
 330 120 313 46 269 17 c 0
 208 -23 132 -13 80 27 c 0
 52 0 l 0
 26 0 l 0
 26 137 l 0
 49 137 l 0
 60 107 81 70 101 52 c 0
 150 7 223 8 245 42 c 0
 257 60 259 88 248 104 c 0
 224 141 94 128 49 189 c 0
 11 242 19 314 77 349 c 0
 131 381 210 373 247 339 c 0
EndSplineSet
EndChar

StartChar: T
Encoding: 84 84 52
Width: 361
VWidth: 0
Flags: HMW
LayerCount: 2
Fore
SplineSet
137 65 m 0
 137 315 l 0
 137 359 43 343 33 222 c 0
 7 222 l 0
 11 361 l 0
 350 361 l 0
 354 222 l 0
 328 222 l 0
 318 343 224 359 224 315 c 0
 224 65 l 0
 224 34 228 27 256 27 c 0
 278 27 l 0
 278 0 l 0
 83 0 l 0
 83 27 l 0
 105 27 l 0
 133 27 137 34 137 65 c 0
EndSplineSet
EndChar

StartChar: U
Encoding: 85 85 53
Width: 416
VWidth: 0
Flags: HMW
LayerCount: 2
Fore
SplineSet
269 334 m 0
 269 361 l 0
 412 361 l 0
 412 334 l 0
 367 334 356 309 356 274 c 0
 356 118 l 0
 355 76 344 41 310 15 c 0
 269 -17 135 -18 93 26 c 0
 64 57 62 85 62 115 c 0
 62 296 l 0
 62 327 58 334 30 334 c 0
 8 334 l 0
 8 361 l 0
 200 361 l 0
 200 334 l 0
 181 334 l 0
 153 334 149 327 149 296 c 0
 149 119 l 0
 149 99 148 82 157 65 c 0
 183 18 264 14 302 52 c 0
 319 69 325 96 325 113 c 0
 325 274 l 0
 325 309 314 334 269 334 c 0
EndSplineSet
EndChar

StartChar: V
Encoding: 86 86 54
Width: 379
VWidth: 0
Flags: HMW
LayerCount: 2
Fore
SplineSet
43 300 m 0
 33 325 25 334 1 334 c 0
 -9 334 l 0
 -9 361 l 0
 171 361 l 0
 171 334 l 0
 146 334 l 0
 132 334 124 329 131 308 c 0
 209 92 l 0
 285 280 l 0
 296 307 283 334 258 334 c 0
 242 334 l 0
 242 361 l 0
 389 361 l 0
 389 334 l 0
 354 329 327 297 315 268 c 0
 199 -8 l 0
 163 -8 l 0
 43 300 l 0
EndSplineSet
EndChar

StartChar: W
Encoding: 87 87 55
Width: 490
VWidth: 0
Flags: HMW
LayerCount: 2
Fore
SplineSet
487 334 m 0
 465 325 447 316 432 270 c 0
 340 -8 l 0
 306 -8 l 0
 247 198 l 0
 178 -8 l 0
 143 -8 l 0
 42 300 l 0
 32 330 23 334 3 334 c 0
 3 361 l 0
 157 361 l 0
 157 334 l 0
 142 334 l 0
 130 334 121 327 127 308 c 0
 188 119 l 0
 231 250 l 0
 217 301 l 0
 210 325 205 334 182 334 c 0
 182 361 l 0
 328 361 l 0
 328 334 l 0
 313 334 l 0
 310 333 307 333 304 331 c 0
 302 329 300 327 299 324 c 0
 296 317 299 309 301 301 c 0
 351 123 l 0
 403 280 l 0
 412 308 395 334 375 334 c 0
 360 334 l 0
 360 361 l 0
 487 361 l 0
 487 334 l 0
EndSplineSet
EndChar

StartChar: X
Encoding: 88 88 56
Width: 361
VWidth: 0
Flags: HMW
LayerCount: 2
Fore
SplineSet
205 27 m 0
 225 27 227 39 217 53 c 0
 159 135 l 0
 122 91 l 0
 82 43 114 27 132 27 c 0
 157 27 l 0
 157 0 l 0
 -1 0 l 0
 -1 27 l 0
 46 36 57 60 85 93 c 0
 142 159 l 0
 44 300 l 0
 27 322 26 334 -6 334 c 0
 -6 361 l 0
 174 361 l 0
 174 334 l 0
 157 334 l 0
 141 334 133 321 141 308 c 0
 198 226 l 0
 236 270 l 0
 270 308 246 334 223 334 c 0
 205 334 l 0
 205 361 l 0
 363 361 l 0
 363 334 l 0
 314 324 303 305 272 268 c 0
 216 201 l 0
 314 61 l 0
 332 38 336 27 368 27 c 0
 368 0 l 0
 188 0 l 0
 188 27 l 0
 205 27 l 0
EndSplineSet
EndChar

StartChar: Y
Encoding: 89 89 57
Width: 361
VWidth: 0
Flags: HMW
LayerCount: 2
Fore
SplineSet
222 65 m 0
 222 34 226 27 254 27 c 0
 277 27 l 0
 277 0 l 0
 79 0 l 0
 79 27 l 0
 103 27 l 0
 131 27 135 34 135 65 c 0
 135 154 l 0
 49 296 l 0
 33 320 32 334 -6 334 c 0
 -6 361 l 0
 174 361 l 0
 174 334 l 0
 163 334 l 0
 137 334 131 327 140 310 c 0
 209 192 l 0
 263 288 l 0
 274 305 267 334 231 334 c 0
 220 334 l 0
 220 361 l 0
 368 361 l 0
 368 334 l 0
 321 325 308 301 288 268 c 0
 222 158 l 0
 222 65 l 0
EndSplineSet
EndChar

StartChar: Z
Encoding: 90 90 58
Width: 333
VWidth: 0
Flags: HMW
LayerCount: 2
Fore
SplineSet
113 27 m 0
 191 20 226 26 254 58 c 0
 272 79 285 110 289 136 c 0
 313 136 l 0
 308 0 l 0
 12 0 l 0
 12 28 l 0
 217 334 l 0
 152 338 123 339 92 311 c 0
 69 290 54 256 49 234 c 0
 25 234 l 0
 30 361 l 0
 317 361 l 0
 317 333 l 0
 113 27 l 0
EndSplineSet
EndChar

StartChar: bracketleft
Encoding: 91 91 59
Width: 194
VWidth: 0
Flags: HMW
LayerCount: 2
Fore
SplineSet
42 361 m 0
 170 359 l 0
 170 337 l 0
 102 337 l 0
 102 -33 l 0
 170 -33 l 0
 170 -55 l 0
 42 -57 l 0
 42 361 l 0
EndSplineSet
EndChar

StartChar: backslash
Encoding: 92 92 60
Width: 303
VWidth: 0
Flags: HMW
LayerCount: 2
Fore
SplineSet
25 369 m 0
 92 369 l 0
 278 0 l 0
 211 0 l 0
 25 369 l 0
EndSplineSet
EndChar

StartChar: bracketright
Encoding: 93 93 61
Width: 194
VWidth: 0
Flags: HMW
LayerCount: 2
Fore
SplineSet
143 361 m 0
 143 -57 l 0
 15 -55 l 0
 15 -33 l 0
 83 -33 l 0
 83 337 l 0
 15 337 l 0
 15 359 l 0
 143 361 l 0
EndSplineSet
EndChar

StartChar: asciicircum
Encoding: 94 94 62
Width: 166
VWidth: 0
Flags: HMW
LayerCount: 2
Fore
SplineSet
113 361 m 0
 172 272 l 0
 138 272 l 0
 85 316 l 0
 30 272 l 0
 -4 272 l 0
 55 361 l 0
 113 361 l 0
EndSplineSet
EndChar

StartChar: underscore
Encoding: 95 95 63
Width: 250
VWidth: 0
Flags: HMW
LayerCount: 2
Fore
SplineSet
0 -29 m 0
 250 -29 l 0
 250 -74 l 0
 0 -74 l 0
 0 -29 l 0
EndSplineSet
EndChar

StartChar: grave
Encoding: 96 96 64
Width: 166
VWidth: 0
Flags: HMW
LayerCount: 2
Fore
SplineSet
21 312 m 0
 -5 326 -2 350 8 360 c 0
 23 373 45 374 63 351 c 0
 125 274 l 0
 93 274 l 0
 21 312 l 0
EndSplineSet
EndChar

StartChar: a
Encoding: 97 97 65
Width: 305
VWidth: 0
Flags: HMW
LayerCount: 2
Fore
SplineSet
179 69 m 0
 179 116 l 0
 163 116 127 108 111 88 c 0
 100 74 96 52 114 35 c 0
 130 21 169 30 179 69 c 0
278 39 m 0
 292 52 304 41 296 24 c 0
 277 -15 216 -22 190 25 c 0
 136 -13 77 -17 42 7 c 0
 13 26 14 62 27 82 c 0
 49 114 75 125 179 144 c 0
 179 167 l 0
 179 177 180 190 172 202 c 0
 160 220 115 217 104 208 c 0
 91 197 128 190 106 158 c 0
 89 135 54 133 39 159 c 0
 27 179 33 203 56 220 c 0
 93 247 191 254 232 221 c 0
 246 210 257 198 257 166 c 0
 257 58 l 0
 257 34 274 35 278 39 c 0
EndSplineSet
EndChar

StartChar: b
Encoding: 98 98 66
Width: 324
VWidth: 0
Flags: HMW
LayerCount: 2
Fore
SplineSet
207 187 m 0
 189 218 151 213 135 186 c 0
 114 152 114 64 133 40 c 0
 157 8 187 13 207 41 c 0
 222 60 227 153 207 187 c 0
9 336 m 0
 0 336 l 0
 0 363 l 0
 119 369 l 0
 119 207 l 0
 156 246 209 255 257 224 c 0
 307 190 330 98 272 33 c 0
 232 -11 140 -32 88 35 c 0
 56 -8 l 0
 33 -8 l 0
 38 16 41 38 41 65 c 0
 41 312 l 0
 41 331 36 336 9 336 c 0
EndSplineSet
EndChar

StartChar: c
Encoding: 99 99 67
Width: 278
VWidth: 0
Flags: HMW
LayerCount: 2
Fore
SplineSet
58 209 m 0
 112 255 203 251 243 214 c 0
 260 197 263 165 244 145 c 0
 229 128 198 129 183 146 c 0
 149 187 203 195 182 214 c 0
 173 222 135 220 120 196 c 0
 91 151 98 71 128 44 c 0
 171 7 223 37 238 89 c 0
 263 81 l 0
 232 -25 123 -23 66 18 c 0
 4 64 -4 156 58 209 c 0
EndSplineSet
EndChar

StartChar: d
Encoding: 100 100 68
Width: 333
VWidth: 0
Flags: HMW
LayerCount: 2
Fore
SplineSet
192 186 m 0
 176 211 142 219 120 186 c 0
 103 161 102 78 118 50 c 0
 133 24 171 18 193 50 c 0
 215 81 209 160 192 186 c 0
180 336 m 0
 161 336 l 0
 161 363 l 0
 285 369 l 0
 285 51 l 0
 285 31 294 27 312 27 c 0
 327 27 l 0
 327 0 l 0
 207 0 l 0
 207 32 l 0
 170 -26 83 -17 47 33 c 0
 5 91 13 161 53 203 c 0
 103 256 168 255 207 207 c 0
 207 312 l 0
 207 332 198 336 180 336 c 0
EndSplineSet
EndChar

StartChar: e
Encoding: 101 101 69
Width: 287
VWidth: 0
Flags: HMW
LayerCount: 2
Fore
SplineSet
52 205 m 0
 102 253 197 260 245 203 c 0
 262 182 269 165 269 114 c 0
 104 114 l 0
 104 103 105 82 115 60 c 0
 132 23 209 -2 245 82 c 0
 270 70 l 0
 231 -29 108 -26 52 29 c 0
 -2 82 9 164 52 205 c 0
189 192 m 0
 178 223 139 228 120 197 c 0
 110 180 106 153 107 142 c 0
 179 142 l 0
 198 142 193 180 189 192 c 0
EndSplineSet
EndChar

StartChar: f
Encoding: 102 102 70
Width: 194
VWidth: 0
Flags: HMW
LayerCount: 2
Fore
SplineSet
51 238 m 0
 50 260 57 313 88 342 c 0
 124 375 181 375 205 359 c 0
 228 344 242 310 222 284 c 0
 209 266 182 265 166 281 c 0
 150 297 156 321 163 328 c 0
 176 340 170 352 151 341 c 0
 132 330 128 295 129 276 c 0
 129 238 l 0
 190 238 l 0
 190 208 l 0
 129 208 l 0
 129 51 l 0
 129 33 134 27 156 27 c 0
 175 27 l 0
 175 0 l 0
 11 0 l 0
 11 27 l 0
 24 27 l 0
 46 27 51 33 51 51 c 0
 51 208 l 0
 7 208 l 0
 7 238 l 0
 51 238 l 0
EndSplineSet
EndChar

StartChar: g
Encoding: 103 103 71
Width: 305
VWidth: 0
Flags: HMW
LayerCount: 2
Fore
SplineSet
88 -58 m 0
 106 -87 198 -75 210 -59 c 0
 218 -49 217 -41 212 -33 c 0
 208 -28 203 -26 181 -26 c 0
 99 -26 l 0
 84 -39 83 -50 88 -58 c 0
119 208 m 0
 102 189 104 128 119 111 c 0
 130 99 158 97 170 111 c 0
 186 128 186 191 170 208 c 0
 158 221 133 222 119 208 c 0
233 215 m 0
 266 191 272 151 247 115 c 0
 221 79 165 73 119 79 c 0
 99 71 100 59 107 53 c 0
 119 40 239 62 269 21 c 0
 291 -9 288 -45 267 -68 c 0
 251 -86 223 -103 142 -103 c 0
 63 -103 35 -97 19 -72 c 0
 7 -52 22 -14 68 -8 c 0
 15 6 7 75 84 87 c 0
 26 109 10 175 48 208 c 0
 99 253 170 248 209 229 c 0
 242 265 280 283 303 257 c 0
 317 241 314 224 300 211 c 0
 285 198 255 205 252 231 c 0
 245 227 237 221 233 215 c 0
EndSplineSet
EndChar

StartChar: h
Encoding: 104 104 72
Width: 342
VWidth: 0
Flags: HMW
LayerCount: 2
Fore
SplineSet
126 196 m 0
 180 271 293 253 293 163 c 0
 293 51 l 0
 293 33 298 27 320 27 c 0
 333 27 l 0
 333 0 l 0
 182 0 l 0
 182 27 l 0
 188 27 l 0
 210 27 215 33 215 51 c 0
 215 154 l 0
 215 217 141 207 126 151 c 0
 126 51 l 0
 126 33 131 27 153 27 c 0
 159 27 l 0
 159 0 l 0
 8 0 l 0
 8 27 l 0
 21 27 l 0
 43 27 48 33 48 51 c 0
 48 312 l 0
 48 330 43 336 21 336 c 0
 8 336 l 0
 8 363 l 0
 126 369 l 0
 126 196 l 0
EndSplineSet
EndChar

StartChar: i
Encoding: 105 105 73
Width: 185
VWidth: 0
Flags: HMW
LayerCount: 2
Fore
SplineSet
27 205 m 0
 14 205 l 0
 14 232 l 0
 132 238 l 0
 132 51 l 0
 132 33 137 27 159 27 c 0
 171 27 l 0
 171 0 l 0
 14 0 l 0
 14 27 l 0
 27 27 l 0
 49 27 54 33 54 51 c 0
 54 181 l 0
 54 199 49 205 27 205 c 0
60 292 m 0
 43 309 43 338 61 356 c 0
 79 374 108 374 126 356 c 0
 143 339 143 310 125 292 c 0
 108 274 78 274 60 292 c 0
EndSplineSet
EndChar

StartChar: j
Encoding: 106 106 74
Width: 176
VWidth: 0
Flags: HMW
LayerCount: 2
Fore
SplineSet
125 292 m 0
 108 274 78 274 60 292 c 0
 43 309 43 338 61 356 c 0
 79 374 108 374 126 356 c 0
 143 339 143 310 125 292 c 0
56 -40 m 0
 56 181 l 0
 56 199 51 205 29 205 c 0
 12 205 l 0
 12 232 l 0
 134 238 l 0
 134 35 l 0
 134 -11 122 -58 91 -85 c 0
 61 -110 -1 -111 -29 -77 c 0
 -45 -58 -44 -37 -30 -20 c 0
 -19 -7 11 -5 24 -23 c 0
 36 -41 37 -59 21 -73 c 0
 37 -81 56 -67 56 -40 c 0
EndSplineSet
EndChar

StartChar: k
Encoding: 107 107 75
Width: 333
VWidth: 0
Flags: HMW
LayerCount: 2
Fore
SplineSet
192 181 m 0
 213 201 203 211 179 211 c 0
 166 211 l 0
 166 238 l 0
 312 238 l 0
 312 211 l 0
 288 211 258 203 244 190 c 0
 206 156 l 0
 289 51 l 0
 307 29 312 27 330 27 c 0
 330 0 l 0
 174 0 l 0
 174 27 l 0
 183 27 l 0
 199 27 206 36 193 51 c 0
 149 107 l 0
 124 85 l 0
 124 51 l 0
 124 33 129 27 151 27 c 0
 158 27 l 0
 158 0 l 0
 6 0 l 0
 6 27 l 0
 19 27 l 0
 41 27 46 33 46 51 c 0
 46 312 l 0
 46 330 41 336 19 336 c 0
 6 336 l 0
 6 363 l 0
 124 369 l 0
 124 121 l 0
 192 181 l 0
EndSplineSet
EndChar

StartChar: l
Encoding: 108 108 76
Width: 176
VWidth: 0
Flags: HMW
LayerCount: 2
Fore
SplineSet
126 51 m 0
 126 33 131 27 153 27 c 0
 166 27 l 0
 166 0 l 0
 8 0 l 0
 8 27 l 0
 21 27 l 0
 43 27 48 33 48 51 c 0
 48 312 l 0
 48 330 43 336 21 336 c 0
 8 336 l 0
 8 363 l 0
 126 369 l 0
 126 51 l 0
EndSplineSet
EndChar

StartChar: m
Encoding: 109 109 77
Width: 481
VWidth: 0
Flags: HMW
LayerCount: 2
Fore
SplineSet
274 197 m 0
 322 269 431 255 431 164 c 0
 431 51 l 0
 431 33 436 27 458 27 c 0
 471 27 l 0
 471 0 l 0
 326 0 l 0
 326 27 l 0
 348 27 353 33 353 51 c 0
 353 166 l 0
 353 221 280 202 280 148 c 0
 280 51 l 0
 280 33 285 27 307 27 c 0
 307 0 l 0
 175 0 l 0
 175 27 l 0
 197 27 202 33 202 51 c 0
 202 166 l 0
 202 221 129 202 129 148 c 0
 129 51 l 0
 129 33 134 27 156 27 c 0
 156 0 l 0
 11 0 l 0
 11 27 l 0
 24 27 l 0
 46 27 51 33 51 51 c 0
 51 181 l 0
 51 199 46 205 24 205 c 0
 11 205 l 0
 11 232 l 0
 124 238 l 0
 124 197 l 0
 169 264 254 253 274 197 c 0
EndSplineSet
EndChar

StartChar: n
Encoding: 110 110 78
Width: 342
VWidth: 0
Flags: HMW
LayerCount: 2
Fore
SplineSet
295 163 m 0
 295 51 l 0
 295 33 300 27 322 27 c 0
 334 27 l 0
 334 0 l 0
 184 0 l 0
 184 27 l 0
 190 27 l 0
 212 27 217 33 217 51 c 0
 217 154 l 0
 217 217 143 207 128 151 c 0
 128 51 l 0
 128 33 133 27 155 27 c 0
 161 27 l 0
 161 0 l 0
 10 0 l 0
 10 27 l 0
 23 27 l 0
 45 27 50 33 50 51 c 0
 50 181 l 0
 50 199 45 205 23 205 c 0
 10 205 l 0
 10 232 l 0
 128 238 l 0
 128 196 l 0
 182 271 295 253 295 163 c 0
EndSplineSet
EndChar

StartChar: o
Encoding: 111 111 79
Width: 305
VWidth: 0
Flags: HMW
LayerCount: 2
Fore
SplineSet
190 197 m 0
 170 227 136 227 116 197 c 0
 97 169 97 66 116 38 c 0
 136 8 170 8 190 38 c 0
 209 66 209 169 190 197 c 0
55 30 m 0
 3 77 3 158 55 205 c 0
 112 256 194 256 251 205 c 0
 303 158 303 77 251 30 c 0
 194 -21 112 -21 55 30 c 0
EndSplineSet
EndChar

StartChar: p
Encoding: 112 112 80
Width: 333
VWidth: 0
Flags: HMW
LayerCount: 2
Fore
SplineSet
219 188 m 0
 205 212 168 220 146 187 c 0
 120 149 124 75 143 47 c 0
 165 15 201 20 218 47 c 0
 235 74 233 166 219 188 c 0
155 -76 m 0
 172 -76 l 0
 172 -103 l 0
 10 -103 l 0
 10 -76 l 0
 23 -76 l 0
 45 -76 50 -70 50 -52 c 0
 50 181 l 0
 50 199 45 205 23 205 c 0
 10 205 l 0
 10 232 l 0
 125 238 l 0
 125 203 l 0
 180 259 241 253 286 205 c 0
 326 162 326 82 286 33 c 0
 243 -19 169 -21 128 25 c 0
 128 -52 l 0
 128 -70 133 -76 155 -76 c 0
EndSplineSet
EndChar

StartChar: q
Encoding: 113 113 81
Width: 324
VWidth: 0
Flags: HMW
LayerCount: 2
Fore
SplineSet
185 49 m 0
 203 77 208 167 187 197 c 0
 164 231 124 222 109 179 c 0
 100 152 101 80 111 58 c 0
 130 16 166 18 185 49 c 0
201 -52 m 0
 201 28 l 0
 159 -15 93 -25 46 31 c 0
 3 84 10 159 49 200 c 0
 105 258 185 258 232 200 c 0
 263 243 l 0
 287 243 l 0
 282 221 279 190 279 170 c 0
 279 -52 l 0
 279 -70 284 -76 306 -76 c 0
 320 -76 l 0
 320 -103 l 0
 155 -103 l 0
 155 -76 l 0
 174 -76 l 0
 196 -76 201 -70 201 -52 c 0
EndSplineSet
EndChar

StartChar: r
Encoding: 114 114 82
Width: 259
VWidth: 0
Flags: HMW
LayerCount: 2
Fore
SplineSet
186 213 m 0
 148 203 127 142 127 98 c 0
 127 51 l 0
 127 33 132 27 154 27 c 0
 173 27 l 0
 173 0 l 0
 9 0 l 0
 9 27 l 0
 22 27 l 0
 44 27 49 33 49 51 c 0
 49 181 l 0
 49 199 44 205 22 205 c 0
 9 205 l 0
 9 232 l 0
 119 238 l 0
 119 177 l 0
 150 244 210 259 244 226 c 0
 259 212 265 187 251 167 c 0
 237 148 202 146 186 168 c 0
 174 185 179 202 186 213 c 0
EndSplineSet
EndChar

StartChar: s
Encoding: 115 115 83
Width: 250
VWidth: 0
Flags: HMW
LayerCount: 2
Fore
SplineSet
199 161 m 0
 174 225 100 232 79 200 c 0
 76 195 74 188 78 181 c 0
 96 149 170 166 214 126 c 0
 242 101 238 49 208 20 c 0
 165 -22 94 -10 57 12 c 0
 40 0 l 0
 19 0 l 0
 19 88 l 0
 40 88 l 0
 83 -1 155 8 173 35 c 0
 179 44 177 56 168 66 c 0
 149 85 58 80 31 129 c 0
 16 156 21 188 37 208 c 0
 69 248 141 254 183 226 c 0
 199 236 l 0
 221 236 l 0
 221 161 l 0
 199 161 l 0
EndSplineSet
EndChar

StartChar: t
Encoding: 116 116 84
Width: 213
VWidth: 0
Flags: HMW
LayerCount: 2
Fore
SplineSet
98 338 m 0
 126 338 l 0
 126 238 l 0
 193 238 l 0
 193 208 l 0
 126 208 l 0
 126 51 l 0
 127 21 159 35 166 41 c 0
 178 51 181 77 181 92 c 0
 203 92 l 0
 203 61 200 40 180 17 c 0
 152 -17 90 -13 67 10 c 0
 50 27 48 50 48 65 c 0
 48 208 l 0
 12 208 l 0
 12 238 l 0
 69 238 83 271 98 338 c 0
EndSplineSet
EndChar

StartChar: u
Encoding: 117 117 85
Width: 342
VWidth: 0
Flags: HMW
LayerCount: 2
Fore
SplineSet
322 27 m 0
 334 27 l 0
 334 0 l 0
 220 0 l 0
 220 39 l 0
 147 -47 50 -2 50 72 c 0
 50 181 l 0
 50 199 45 205 23 205 c 0
 10 205 l 0
 10 232 l 0
 128 238 l 0
 128 77 l 0
 128 15 217 25 217 106 c 0
 217 181 l 0
 217 199 212 205 190 205 c 0
 177 205 l 0
 177 232 l 0
 295 238 l 0
 295 51 l 0
 295 33 300 27 322 27 c 0
EndSplineSet
EndChar

StartChar: v
Encoding: 118 118 86
Width: 305
VWidth: 0
Flags: HMW
LayerCount: 2
Fore
SplineSet
126 179 m 0
 179 72 l 0
 221 164 l 0
 239 202 219 211 206 211 c 0
 188 211 l 0
 188 238 l 0
 299 238 l 0
 299 211 l 0
 282 211 263 198 254 174 c 0
 175 -4 l 0
 135 -4 l 0
 43 181 l 0
 30 206 23 211 6 211 c 0
 6 238 l 0
 147 238 l 0
 147 211 l 0
 138 211 l 0
 124 211 113 205 126 179 c 0
EndSplineSet
EndChar

StartChar: w
Encoding: 119 119 87
Width: 444
VWidth: 0
Flags: HMW
LayerCount: 2
Fore
SplineSet
391 174 m 0
 312 -4 l 0
 276 -4 l 0
 221 129 l 0
 162 -4 l 0
 126 -4 l 0
 47 181 l 0
 36 205 39 211 10 211 c 0
 10 238 l 0
 147 238 l 0
 147 211 l 0
 139 211 l 0
 125 211 114 205 127 179 c 0
 170 80 l 0
 208 163 l 0
 200 181 l 0
 191 202 188 211 165 211 c 0
 165 238 l 0
 300 238 l 0
 300 211 l 0
 289 211 l 0
 275 211 264 205 277 179 c 0
 320 80 l 0
 358 169 l 0
 371 199 354 211 333 211 c 0
 325 211 l 0
 325 238 l 0
 438 238 l 0
 438 211 l 0
 420 211 400 198 391 174 c 0
EndSplineSet
EndChar

StartChar: x
Encoding: 120 120 88
Width: 305
VWidth: 0
Flags: HMW
LayerCount: 2
Fore
SplineSet
193 211 m 0
 174 211 l 0
 174 238 l 0
 293 238 l 0
 293 211 l 0
 267 211 255 205 232 183 c 0
 184 136 l 0
 240 69 l 0
 265 38 276 27 299 27 c 0
 299 0 l 0
 143 0 l 0
 143 27 l 0
 156 27 l 0
 170 27 170 41 164 48 c 0
 131 85 l 0
 98 55 l 0
 90 46 88 27 106 27 c 0
 122 27 l 0
 122 0 l 0
 7 0 l 0
 7 27 l 0
 28 27 39 35 60 55 c 0
 114 106 l 0
 51 181 l 0
 33 202 28 211 9 211 c 0
 9 238 l 0
 155 238 l 0
 155 211 l 0
 142 211 l 0
 132 211 129 201 135 194 c 0
 167 156 l 0
 194 183 l 0
 210 199 205 211 193 211 c 0
EndSplineSet
EndChar

StartChar: y
Encoding: 121 121 89
Width: 305
VWidth: 0
Flags: HMW
LayerCount: 2
Fore
SplineSet
79 -27 m 0
 87 -36 91 -52 85 -70 c 0
 112 -61 121 -51 141 -7 c 0
 46 181 l 0
 29 210 22 211 8 211 c 0
 8 238 l 0
 151 238 l 0
 151 211 l 0
 142 211 l 0
 125 211 118 203 126 185 c 0
 182 74 l 0
 220 164 l 0
 233 194 228 211 205 211 c 0
 186 211 l 0
 186 238 l 0
 299 238 l 0
 299 211 l 0
 274 211 261 192 253 174 c 0
 165 -22 l 0
 150 -56 132 -81 109 -92 c 0
 72 -110 37 -108 14 -82 c 0
 2 -68 1 -39 18 -23 c 0
 35 -8 63 -7 79 -27 c 0
EndSplineSet
EndChar

StartChar: z
Encoding: 122 122 90
Width: 268
VWidth: 0
Flags: HMW
LayerCount: 2
Fore
SplineSet
164 27 m 0
 189 27 210 49 222 94 c 0
 244 94 l 0
 239 0 l 0
 18 0 l 0
 18 21 l 0
 156 211 l 0
 108 211 l 0
 76 211 64 190 52 148 c 0
 29 148 l 0
 34 238 l 0
 248 238 l 0
 248 217 l 0
 111 27 l 0
 164 27 l 0
EndSplineSet
EndChar

StartChar: braceleft
Encoding: 123 123 91
Width: 194
VWidth: 0
Flags: HMW
LayerCount: 2
Fore
SplineSet
74 201 m 0
 74 300 l 0
 74 344 99 361 133 361 c 0
 172 361 l 0
 139 361 133 327 134 304 c 0
 134 219 l 0
 134 176 121 162 94 152 c 0
 121 142 134 128 134 85 c 0
 134 0 l 0
 133 -23 139 -57 172 -57 c 0
 133 -57 l 0
 99 -57 74 -40 74 4 c 0
 74 103 l 0
 74 132 67 141 42 152 c 0
 67 163 74 172 74 201 c 0
EndSplineSet
EndChar

StartChar: bar
Encoding: 124 124 92
Width: 303
VWidth: 0
Flags: HMW
LayerCount: 2
Fore
SplineSet
122 369 m 0
 181 369 l 0
 181 0 l 0
 122 0 l 0
 122 369 l 0
EndSplineSet
EndChar

StartChar: braceright
Encoding: 125 125 93
Width: 194
VWidth: 0
Flags: HMW
LayerCount: 2
Fore
SplineSet
16 361 m 0
 55 361 l 0
 89 361 114 344 114 300 c 0
 114 201 l 0
 114 172 121 163 146 152 c 0
 121 141 114 132 114 103 c 0
 114 4 l 0
 114 -40 89 -57 55 -57 c 0
 16 -57 l 0
 49 -57 55 -23 54 0 c 0
 54 85 l 0
 54 128 67 142 94 152 c 0
 67 162 54 176 54 219 c 0
 54 304 l 0
 55 327 49 361 16 361 c 0
EndSplineSet
EndChar

StartChar: asciitilde
Encoding: 126 126 94
Width: 166
VWidth: 0
Flags: HMW
LayerCount: 2
Fore
SplineSet
12 283 m 0
 -12 283 l 0
 -10 299 -6 318 10 337 c 0
 59 391 140 287 155 353 c 0
 179 353 l 0
 177 337 173 318 157 299 c 0
 108 245 27 349 12 283 c 0
EndSplineSet
EndChar

StartChar: uni008F
Encoding: 143 143 95
Width: 303
VWidth: 0
Flags: HMW
LayerCount: 2
Fore
SplineSet
90 232 m 0
 124 266 178 266 212 232 c 0
 246 198 246 144 213 111 c 0
 178 76 124 76 91 111 c 0
 58 144 58 200 90 232 c 0
EndSplineSet
EndChar

StartChar: uni0090
Encoding: 144 144 96
Width: 120
VWidth: 0
Flags: HMW
LayerCount: 2
Fore
SplineSet
96 373 m 0
 110 354 l 0
 83 333 59 310 60 284 c 0
 71 284 84 282 93 273 c 0
 110 256 110 224 93 207 c 0
 76 190 46 189 27 208 c 0
 -3 238 13 299 45 331 c 0
 64 350 78 360 96 373 c 0
EndSplineSet
EndChar

StartChar: uni0091
Encoding: 145 145 97
Width: 120
VWidth: 0
Flags: HMW
LayerCount: 2
Fore
SplineSet
11 209 m 0
 38 230 62 253 61 279 c 0
 50 279 37 281 28 290 c 0
 11 307 11 339 28 356 c 0
 45 373 75 374 94 355 c 0
 124 325 108 264 76 232 c 0
 57 213 43 203 25 190 c 0
 11 209 l 0
EndSplineSet
EndChar

StartChar: uni0092
Encoding: 146 146 98
Width: 166
VWidth: 0
Flags: HMW
LayerCount: 2
Fore
SplineSet
36 117 m 0
 36 129 l 0
 60 144 90 172 115 198 c 0
 125 209 138 199 130 186 c 0
 115 165 103 142 91 123 c 0
 103 104 115 81 130 60 c 0
 138 47 125 37 115 48 c 0
 90 74 60 102 36 117 c 0
EndSplineSet
EndChar

StartChar: uni0093
Encoding: 147 147 99
Width: 166
VWidth: 0
Flags: HMW
LayerCount: 2
Fore
SplineSet
40 60 m 0
 55 81 67 104 79 123 c 0
 67 142 55 165 40 186 c 0
 32 199 45 209 55 198 c 0
 80 172 110 144 134 129 c 0
 134 117 l 0
 110 102 80 74 55 48 c 0
 45 37 32 47 40 60 c 0
EndSplineSet
EndChar

StartChar: uni0094
Encoding: 148 148 100
Width: 240
VWidth: 0
Flags: HMW
LayerCount: 2
Fore
SplineSet
93 207 m 0
 76 190 46 189 27 208 c 0
 -3 238 13 299 45 331 c 0
 64 350 78 360 96 373 c 0
 110 354 l 0
 83 333 59 310 60 284 c 0
 71 284 84 282 93 273 c 0
 110 256 110 224 93 207 c 0
212 273 m 0
 229 256 229 224 212 207 c 0
 195 190 165 189 146 208 c 0
 116 238 132 299 164 331 c 0
 183 350 197 360 215 373 c 0
 229 354 l 0
 202 333 178 310 179 284 c 0
 190 284 203 282 212 273 c 0
EndSplineSet
EndChar

StartChar: uni0095
Encoding: 149 149 101
Width: 240
VWidth: 0
Flags: HMW
LayerCount: 2
Fore
SplineSet
146 290 m 0
 129 307 129 339 146 356 c 0
 163 373 193 374 212 355 c 0
 242 325 226 264 194 232 c 0
 175 213 161 203 143 190 c 0
 129 209 l 0
 156 230 180 253 179 279 c 0
 168 279 155 281 146 290 c 0
94 355 m 0
 124 325 108 264 76 232 c 0
 57 213 43 203 25 190 c 0
 11 209 l 0
 38 230 62 253 61 279 c 0
 50 279 37 281 28 290 c 0
 11 307 11 339 28 356 c 0
 45 373 75 374 94 355 c 0
EndSplineSet
EndChar

StartChar: uni0096
Encoding: 150 150 102
Width: 240
VWidth: 0
Flags: HMW
LayerCount: 2
Fore
SplineSet
62 -8 m 0
 51 -8 38 -6 29 3 c 0
 12 20 12 56 29 73 c 0
 46 90 76 91 95 72 c 0
 125 42 109 -21 77 -53 c 0
 58 -72 44 -82 26 -95 c 0
 12 -76 l 0
 39 -55 63 -34 62 -8 c 0
147 73 m 0
 164 90 194 91 213 72 c 0
 243 42 227 -21 195 -53 c 0
 176 -72 162 -82 144 -95 c 0
 130 -76 l 0
 157 -55 181 -34 180 -8 c 0
 169 -8 156 -6 147 3 c 0
 130 20 130 56 147 73 c 0
EndSplineSet
EndChar

StartChar: uni0097
Encoding: 151 151 103
Width: 250
VWidth: 0
Flags: HMW
LayerCount: 2
Fore
SplineSet
0 148 m 0
 250 148 l 0
 250 96 l 0
 0 96 l 0
 0 148 l 0
EndSplineSet
EndChar

StartChar: uni0098
Encoding: 152 152 104
Width: 500
VWidth: 0
Flags: HMW
LayerCount: 2
Fore
SplineSet
0 96 m 0
 0 148 l 0
 500 148 l 0
 500 96 l 0
 0 96 l 0
EndSplineSet
EndChar

StartChar: uni0099
Encoding: 153 153 105
Width: 303
VWidth: 0
Flags: HMW
LayerCount: 2
Fore
SplineSet
278 151 m 0
 278 93 l 0
 26 93 l 0
 26 151 l 0
 278 151 l 0
EndSplineSet
EndChar

StartChar: uni009A
Encoding: 154 154 106
Width: 500
VWidth: 0
Flags: HMW
LayerCount: 2
Fore
SplineSet
313 65 m 0
 313 27 325 27 351 27 c 0
 395 27 410 37 431 60 c 0
 450 81 461 114 466 135 c 0
 494 133 l 0
 489 0 l 0
 182 0 l 0
 141 0 96 13 59 50 c 0
 -15 123 -16 237 59 311 c 0
 96 348 142 361 188 361 c 0
 492 361 l 0
 490 228 l 0
 463 228 l 0
 444 296 421 334 345 334 c 0
 317 334 313 327 313 296 c 0
 313 198 l 0
 336 198 345 199 357 211 c 0
 370 224 374 253 374 268 c 0
 401 268 l 0
 401 96 l 0
 374 96 l 0
 374 112 366 147 354 159 c 0
 342 170 334 172 313 172 c 0
 313 65 l 0
226 65 m 0
 226 295 l 0
 203 344 161 341 132 314 c 0
 110 291 100 255 100 202 c 0
 100 158 l 0
 100 105 110 69 132 46 c 0
 158 20 209 16 226 65 c 0
EndSplineSet
EndChar

StartChar: uni009B
Encoding: 155 155 107
Width: 453
VWidth: 0
Flags: HMW
LayerCount: 2
Fore
SplineSet
123 207 m 0
 96 180 95 56 123 28 c 0
 140 11 162 11 178 27 c 0
 208 57 210 177 177 209 c 0
 162 224 140 224 123 207 c 0
234 25 m 0
 196 -15 110 -24 56 30 c 0
 5 80 6 154 53 202 c 0
 108 258 191 253 235 210 c 0
 271 246 354 261 405 210 c 0
 430 185 435 164 435 114 c 0
 271 114 l 0
 271 79 280 58 296 42 c 0
 322 16 360 19 387 46 c 0
 398 57 406 71 410 81 c 0
 436 69 l 0
 428 52 419 38 406 25 c 0
 355 -26 277 -12 234 25 c 0
357 165 m 0
 357 182 355 195 342 210 c 0
 329 222 309 222 293 206 c 0
 280 193 273 166 274 142 c 0
 342 142 l 0
 353 142 357 153 357 165 c 0
EndSplineSet
EndChar

StartChar: uni009C
Encoding: 156 156 108
Width: 250
VWidth: 0
Flags: HMW
LayerCount: 2
Fore
SplineSet
130 -44 m 0
 118 -44 l 0
 119 84 108 115 91 157 c 0
 111 190 119 216 119 246 c 0
 103 245 83 237 68 229 c 0
 54 220 37 221 30 229 c 0
 20 239 19 261 30 271 c 0
 37 279 54 280 68 271 c 0
 83 263 103 255 119 254 c 0
 119 276 111 301 102 316 c 0
 92 334 91 349 102 361 c 0
 113 372 135 372 146 361 c 0
 157 349 156 334 146 316 c 0
 137 301 129 276 129 254 c 0
 145 255 165 263 180 271 c 0
 194 280 211 279 218 271 c 0
 229 261 228 239 218 229 c 0
 211 221 194 220 180 229 c 0
 165 237 145 245 129 246 c 0
 129 216 137 190 157 157 c 0
 140 115 129 84 130 -44 c 0
EndSplineSet
EndChar

StartChar: uni009D
Encoding: 157 157 109
Width: 250
VWidth: 0
Flags: HMW
LayerCount: 2
Fore
SplineSet
149 -37 m 0
 138 -48 115 -48 104 -37 c 0
 93 -25 94 -10 104 8 c 0
 113 23 121 48 121 70 c 0
 105 69 85 61 70 53 c 0
 56 44 39 45 32 53 c 0
 21 63 22 83 32 93 c 0
 39 101 56 102 70 93 c 0
 85 85 105 77 121 76 c 0
 121 103 113 128 93 156 c 0
 113 184 121 218 121 245 c 0
 105 244 85 236 70 228 c 0
 56 219 39 220 32 228 c 0
 22 238 21 258 32 268 c 0
 39 276 56 277 70 268 c 0
 85 260 105 252 121 251 c 0
 121 273 113 301 104 316 c 0
 94 334 93 349 104 361 c 0
 115 372 138 372 149 361 c 0
 160 349 159 334 149 316 c 0
 140 301 132 273 132 251 c 0
 148 252 168 260 183 268 c 0
 197 277 214 276 221 268 c 0
 232 258 231 238 221 228 c 0
 214 220 197 219 183 228 c 0
 168 236 148 244 132 245 c 0
 132 218 140 184 160 156 c 0
 140 128 132 103 132 76 c 0
 148 77 168 85 183 93 c 0
 197 102 214 101 221 93 c 0
 231 83 232 63 221 53 c 0
 214 45 197 44 183 53 c 0
 168 61 148 69 132 70 c 0
 132 48 140 23 149 8 c 0
 159 -10 160 -25 149 -37 c 0
EndSplineSet
EndChar

StartChar: uni009E
Encoding: 158 158 110
Width: 342
VWidth: 0
Flags: HMW
LayerCount: 2
Fore
SplineSet
297 51 m 0
 297 33 302 27 324 27 c 0
 333 27 l 0
 333 0 l 0
 183 0 l 0
 183 27 l 0
 192 27 l 0
 214 27 219 33 219 51 c 0
 219 182 l 0
 219 200 214 206 192 206 c 0
 129 206 l 0
 129 51 l 0
 129 33 134 27 156 27 c 0
 163 27 l 0
 163 0 l 0
 11 0 l 0
 11 27 l 0
 24 27 l 0
 46 27 51 33 51 51 c 0
 51 206 l 0
 7 206 l 0
 7 236 l 0
 51 236 l 0
 51 246 59 299 89 329 c 0
 135 375 237 384 278 343 c 0
 295 326 296 298 281 284 c 0
 268 266 241 265 225 281 c 0
 209 297 213 321 220 328 c 0
 224 332 222 336 217 340 c 0
 208 350 173 345 156 328 c 0
 130 303 128 268 129 236 c 0
 250 236 l 0
 297 238 l 0
 297 51 l 0
EndSplineSet
EndChar

StartChar: uni009F
Encoding: 159 159 111
Width: 342
VWidth: 0
Flags: HMW
LayerCount: 2
Fore
SplineSet
219 281 m 0
 183 294 210 329 210 334 c 0
 210 347 176 351 155 330 c 0
 135 310 129 283 129 258 c 0
 129 236 l 0
 219 236 l 0
 219 281 l 0
51 51 m 0
 51 206 l 0
 8 206 l 0
 8 236 l 0
 51 236 l 0
 50 259 58 303 88 332 c 0
 129 374 198 376 244 360 c 0
 297 369 l 0
 297 51 l 0
 297 33 302 27 324 27 c 0
 333 27 l 0
 333 0 l 0
 183 0 l 0
 183 27 l 0
 192 27 l 0
 214 27 219 33 219 51 c 0
 219 206 l 0
 129 206 l 0
 129 51 l 0
 129 33 134 27 156 27 c 0
 164 27 l 0
 164 0 l 0
 12 0 l 0
 12 27 l 0
 24 27 l 0
 46 27 51 33 51 51 c 0
EndSplineSet
EndChar

StartChar: exclamdown
Encoding: 161 161 113
Width: 148
VWidth: 0
Flags: HMW
LayerCount: 2
Fore
SplineSet
105 -89 m 0
 86 -109 61 -109 41 -89 c 0
 1 -50 64 40 60 152 c 0
 86 152 l 0
 82 40 145 -50 105 -89 c 0
39 261 m 0
 58 279 88 279 106 261 c 0
 125 242 125 212 107 194 c 0
 88 175 58 175 40 194 c 0
 21 212 21 243 39 261 c 0
EndSplineSet
EndChar

StartChar: cent
Encoding: 162 162 114
Width: 287
VWidth: 0
Flags: HMW
LayerCount: 2
Fore
SplineSet
230 228 m 0
 261 211 272 169 249 146 c 0
 230 127 204 129 185 146 c 0
 129 42 l 0
 154 17 194 20 221 47 c 0
 229 55 241 78 243 87 c 0
 267 79 l 0
 263 64 251 41 239 29 c 0
 199 -11 148 -16 107 1 c 0
 76 -53 l 0
 50 -53 l 0
 84 9 l 0
 73 14 61 24 54 31 c 0
 6 79 5 155 54 203 c 0
 95 245 162 251 209 237 c 0
 236 287 l 0
 263 287 l 0
 230 228 l 0
176 179 m 0
 178 189 191 200 191 209 c 0
 191 226 148 227 127 206 c 0
 106 185 95 102 115 64 c 0
 176 179 l 0
EndSplineSet
EndChar

StartChar: sterling
Encoding: 163 163 115
Width: 287
VWidth: 0
Flags: HMW
LayerCount: 2
Fore
SplineSet
115 27 m 0
 94 -10 47 -19 20 7 c 0
 6 22 6 53 22 68 c 0
 40 87 79 86 103 74 c 0
 104 101 97 134 82 158 c 0
 18 158 l 0
 18 184 l 0
 73 184 l 0
 50 234 54 285 88 318 c 0
 128 360 209 368 251 326 c 0
 278 300 282 259 262 239 c 0
 246 224 216 220 200 235 c 0
 187 249 184 269 195 280 c 0
 204 289 235 300 219 316 c 0
 200 335 166 334 148 317 c 0
 117 285 146 236 153 184 c 0
 231 184 l 0
 231 158 l 0
 156 158 l 0
 157 128 150 89 140 67 c 0
 204 44 244 56 257 96 c 0
 281 92 l 0
 281 81 270 38 249 17 c 0
 208 -24 150 -9 115 27 c 0
96 45 m 0
 77 59 54 69 38 54 c 0
 30 45 32 30 40 22 c 0
 55 8 81 14 96 45 c 0
EndSplineSet
EndChar

StartChar: currency
Encoding: 164 164 116
Width: 287
VWidth: 0
Flags: HMW
LayerCount: 2
Fore
SplineSet
99 213 m 0
 74 189 74 147 98 124 c 0
 123 100 163 100 187 124 c 0
 212 149 212 189 188 213 c 0
 163 238 123 238 99 213 c 0
79 65 m 0
 57 43 l 0
 17 80 l 0
 41 104 l 0
 15 142 16 200 41 235 c 0
 17 259 l 0
 57 296 l 0
 79 274 l 0
 117 298 172 297 208 274 c 0
 230 296 l 0
 270 259 l 0
 246 235 l 0
 273 197 270 136 246 104 c 0
 270 80 l 0
 230 43 l 0
 208 65 l 0
 173 41 115 41 79 65 c 0
EndSplineSet
EndChar

StartChar: yen
Encoding: 165 165 117
Width: 287
VWidth: 0
Flags: HMW
LayerCount: 2
Fore
SplineSet
222 263 m 0
 188 177 l 0
 243 178 l 0
 243 150 l 0
 187 150 l 0
 187 114 l 0
 243 114 l 0
 243 86 l 0
 187 86 l 0
 187 65 l 0
 187 34 191 27 219 27 c 0
 243 27 l 0
 243 0 l 0
 44 0 l 0
 44 27 l 0
 68 27 l 0
 96 27 104 34 104 65 c 0
 104 86 l 0
 47 86 l 0
 47 114 l 0
 104 114 l 0
 104 150 l 0
 47 150 l 0
 47 178 l 0
 104 177 l 0
 53 288 l 0
 37 312 36 326 1 326 c 0
 1 353 l 0
 141 353 l 0
 141 326 l 0
 129 326 l 0
 103 326 101 319 110 302 c 0
 164 180 l 0
 200 280 l 0
 209 304 216 326 180 326 c 0
 172 326 l 0
 172 353 l 0
 285 353 l 0
 285 326 l 0
 238 317 237 295 222 263 c 0
EndSplineSet
EndChar

StartChar: brokenbar
Encoding: 166 166 118
Width: 303
VWidth: 0
Flags: HMW
LayerCount: 2
Fore
SplineSet
181 369 m 0
 181 219 l 0
 122 219 l 0
 122 369 l 0
 181 369 l 0
122 0 m 0
 122 150 l 0
 181 150 l 0
 181 0 l 0
 122 0 l 0
EndSplineSet
EndChar

StartChar: section
Encoding: 167 167 119
Width: 250
VWidth: 0
Flags: HMW
LayerCount: 2
Fore
SplineSet
166 176 m 0
 120 213 l 0
 102 226 82 222 70 209 c 0
 56 196 62 169 86 148 c 0
 126 117 l 0
 152 100 167 101 181 115 c 0
 197 131 187 157 166 176 c 0
171 79 m 0
 205 45 204 2 181 -21 c 0
 151 -51 87 -50 61 -22 c 0
 43 -5 48 19 59 30 c 0
 69 40 88 39 96 31 c 0
 106 22 108 8 100 -1 c 0
 93 -6 79 -16 87 -23 c 0
 100 -37 136 -39 153 -21 c 0
 169 -6 168 18 149 37 c 0
 131 55 93 78 64 108 c 0
 23 147 26 190 47 211 c 0
 59 223 82 230 97 228 c 0
 97 233 l 0
 80 249 l 0
 46 282 52 327 74 349 c 0
 101 376 157 376 184 349 c 0
 200 333 201 310 189 298 c 0
 176 285 158 286 146 298 c 0
 139 305 139 321 145 327 c 0
 155 338 171 340 157 354 c 0
 148 362 114 363 99 348 c 0
 80 329 85 306 100 291 c 0
 113 278 150 257 181 227 c 0
 228 181 226 134 206 114 c 0
 193 101 175 96 158 96 c 0
 158 90 l 0
 171 79 l 0
EndSplineSet
EndChar

StartChar: dieresis
Encoding: 168 168 120
Width: 166
VWidth: 0
Flags: HMW
LayerCount: 2
Fore
SplineSet
163 337 m 0
 176 324 176 301 162 286 c 0
 148 273 126 273 111 286 c 0
 98 300 98 324 112 337 c 0
 126 352 148 352 163 337 c 0
56 286 m 0
 41 273 19 273 5 286 c 0
 -9 301 -9 324 4 337 c 0
 19 352 41 352 55 337 c 0
 69 324 69 300 56 286 c 0
EndSplineSet
EndChar

StartChar: copyright
Encoding: 169 169 121
Width: 373
VWidth: 0
Flags: HMW
LayerCount: 2
Fore
SplineSet
261 262 m 0
 261 210 l 0
 243 210 l 0
 239 224 234 237 224 247 c 0
 209 262 181 261 166 246 c 0
 131 211 143 138 169 112 c 0
 194 88 234 95 253 128 c 0
 268 122 l 0
 237 64 160 62 122 101 c 0
 84 139 83 208 123 249 c 0
 158 283 196 284 261 262 c 0
290 291 m 0
 233 349 140 348 84 291 c 0
 20 228 20 134 84 70 c 0
 140 13 233 12 290 70 c 0
 354 134 354 228 290 291 c 0
316 314 m 0
 389 243 390 121 316 47 c 0
 245 -26 130 -26 58 47 c 0
 -16 121 -15 243 58 314 c 0
 130 387 245 387 316 314 c 0
EndSplineSet
EndChar

StartChar: ordfeminine
Encoding: 170 170 122
Width: 183
VWidth: 0
Flags: HMW
LayerCount: 2
Fore
SplineSet
107 322 m 0
 107 333 105 341 100 346 c 0
 91 355 62 356 55 347 c 0
 49 342 72 330 55 312 c 0
 43 300 26 301 17 310 c 0
 8 319 6 339 19 350 c 0
 44 376 122 375 146 350 c 0
 151 346 156 337 156 322 c 0
 156 259 l 0
 157 237 167 237 174 244 c 0
 179 249 191 239 174 223 c 0
 157 206 123 212 114 234 c 0
 79 213 34 203 10 228 c 0
 -3 241 -1 263 10 275 c 0
 24 290 64 299 107 305 c 0
 107 322 l 0
107 288 m 0
 94 287 75 286 61 272 c 0
 50 261 52 247 57 241 c 0
 70 228 101 236 107 262 c 0
 107 288 l 0
5 174 m 0
 169 174 l 0
 169 147 l 0
 5 147 l 0
 5 174 l 0
EndSplineSet
EndChar

StartChar: guillemotleft
Encoding: 171 171 123
Width: 250
VWidth: 0
Flags: HMW
LayerCount: 2
Fore
SplineSet
218 60 m 0
 226 47 213 37 203 48 c 0
 178 74 148 102 124 117 c 0
 124 129 l 0
 148 144 178 172 203 198 c 0
 213 209 226 199 218 186 c 0
 203 165 191 142 179 123 c 0
 191 104 203 81 218 60 c 0
25 117 m 0
 25 129 l 0
 49 144 79 172 104 198 c 0
 114 209 127 199 119 186 c 0
 104 165 92 142 80 123 c 0
 92 104 104 81 119 60 c 0
 127 47 114 37 104 48 c 0
 79 74 49 102 25 117 c 0
EndSplineSet
EndChar

StartChar: logicalnot
Encoding: 172 172 124
Width: 303
VWidth: 0
Flags: HMW
LayerCount: 2
Fore
SplineSet
220 142 m 0
 26 142 l 0
 26 200 l 0
 278 200 l 0
 278 54 l 0
 220 54 l 0
 220 142 l 0
EndSplineSet
EndChar

StartChar: uni00AD
Encoding: 173 173 125
Width: 166
VWidth: 0
Flags: HMW
LayerCount: 2
Fore
SplineSet
21 90 m 0
 21 155 l 0
 146 155 l 0
 146 90 l 0
 21 90 l 0
EndSplineSet
EndChar

StartChar: registered
Encoding: 174 174 126
Width: 373
VWidth: 0
Flags: HMW
LayerCount: 2
Fore
SplineSet
316 47 m 0
 245 -26 130 -26 58 47 c 0
 -16 121 -15 243 58 314 c 0
 130 387 245 387 316 314 c 0
 389 243 390 121 316 47 c 0
84 291 m 0
 20 228 20 134 84 70 c 0
 140 13 233 12 290 70 c 0
 354 134 354 228 290 291 c 0
 233 349 140 348 84 291 c 0
169 264 m 0
 169 190 l 0
 180 184 199 184 208 194 c 0
 225 210 227 242 211 257 c 0
 198 271 183 269 169 264 c 0
285 98 m 0
 285 87 l 0
 252 87 l 0
 207 87 219 173 179 173 c 0
 169 173 l 0
 169 117 l 0
 169 102 172 99 191 98 c 0
 191 87 l 0
 106 87 l 0
 106 98 l 0
 125 99 128 102 128 117 c 0
 128 249 l 0
 128 264 125 267 106 268 c 0
 106 279 l 0
 208 279 l 0
 229 279 241 272 247 266 c 0
 266 247 265 216 246 197 c 0
 238 189 229 184 213 181 c 0
 251 180 258 100 285 98 c 0
EndSplineSet
EndChar

StartChar: macron
Encoding: 175 175 127
Width: 166
VWidth: 0
Flags: HMW
LayerCount: 2
Fore
SplineSet
170 332 m 0
 170 292 l 0
 -3 292 l 0
 -3 332 l 0
 170 332 l 0
EndSplineSet
EndChar

StartChar: degree
Encoding: 176 176 128
Width: 200
VWidth: 0
Flags: HMW
LayerCount: 2
Fore
SplineSet
68 313 m 0
 50 295 50 265 67 247 c 0
 86 230 115 230 132 247 c 0
 151 266 151 295 133 313 c 0
 115 331 86 331 68 313 c 0
47 227 m 0
 18 256 18 305 46 333 c 0
 76 362 123 362 152 333 c 0
 182 303 182 256 153 227 c 0
 123 197 76 197 47 227 c 0
EndSplineSet
EndChar

StartChar: plusminus
Encoding: 177 177 129
Width: 303
VWidth: 0
Flags: HMW
LayerCount: 2
Fore
SplineSet
278 58 m 0
 278 0 l 0
 26 0 l 0
 26 58 l 0
 278 58 l 0
123 257 m 0
 181 257 l 0
 181 198 l 0
 278 198 l 0
 278 140 l 0
 181 140 l 0
 181 80 l 0
 123 80 l 0
 123 140 l 0
 26 140 l 0
 26 198 l 0
 123 198 l 0
 123 257 l 0
EndSplineSet
EndChar

StartChar: uni00B2
Encoding: 178 178 130
Width: 172
VWidth: 0
Flags: HMW
LayerCount: 2
Fore
SplineSet
122 185 m 0
 135 186 141 188 144 198 c 0
 150 219 l 0
 169 219 l 0
 161 141 l 0
 144 142 l 0
 15 142 l 0
 3 141 l 0
 3 155 l 0
 34 195 79 233 99 260 c 0
 117 285 115 312 100 326 c 0
 90 337 66 339 54 327 c 0
 38 311 57 312 66 302 c 0
 73 295 74 275 64 266 c 0
 53 255 31 255 19 267 c 0
 5 281 6 309 30 333 c 0
 60 363 124 358 152 330 c 0
 172 310 173 275 149 252 c 0
 124 226 86 213 52 185 c 0
 122 185 l 0
EndSplineSet
EndChar

StartChar: uni00B3
Encoding: 179 179 131
Width: 172
VWidth: 0
Flags: HMW
LayerCount: 2
Fore
SplineSet
24 329 m 0
 64 370 134 350 152 332 c 0
 167 318 170 289 152 272 c 0
 143 262 125 254 105 252 c 0
 127 249 144 243 156 232 c 0
 172 217 173 183 152 163 c 0
 120 130 43 135 16 162 c 0
 2 177 0 198 12 210 c 0
 23 220 42 220 53 210 c 0
 62 200 62 187 56 180 c 0
 52 176 40 170 46 165 c 0
 57 154 83 148 99 164 c 0
 118 182 115 221 101 235 c 0
 85 251 59 238 52 244 c 0
 46 250 46 255 52 259 c 0
 59 266 85 251 96 263 c 0
 113 280 113 316 99 331 c 0
 87 342 64 339 57 333 c 0
 43 318 86 310 60 283 c 0
 50 273 31 274 19 286 c 0
 9 296 9 314 24 329 c 0
EndSplineSet
EndChar

StartChar: acute
Encoding: 180 180 132
Width: 166
VWidth: 0
Flags: HMW
LayerCount: 2
Fore
SplineSet
146 312 m 0
 74 274 l 0
 42 274 l 0
 104 351 l 0
 122 374 144 373 159 360 c 0
 169 350 172 326 146 312 c 0
EndSplineSet
EndChar

StartChar: mu
Encoding: 181 181 133
Width: 342
VWidth: 0
Flags: HMW
LayerCount: 2
Fore
SplineSet
322 27 m 0
 334 27 l 0
 334 0 l 0
 220 0 l 0
 220 39 l 0
 165 -23 102 -16 75 15 c 0
 75 6 77 -16 89 -38 c 0
 101 -62 97 -83 84 -95 c 0
 72 -107 54 -106 44 -94 c 0
 27 -79 31 -50 39 -35 c 0
 51 -14 52 6 52 35 c 0
 52 56 50 63 50 72 c 0
 50 181 l 0
 50 199 45 205 23 205 c 0
 10 205 l 0
 10 232 l 0
 128 238 l 0
 128 77 l 0
 128 15 217 25 217 106 c 0
 217 181 l 0
 217 199 212 205 190 205 c 0
 177 205 l 0
 177 232 l 0
 295 238 l 0
 295 51 l 0
 295 33 300 27 322 27 c 0
EndSplineSet
EndChar

StartChar: paragraph
Encoding: 182 182 134
Width: 373
VWidth: 0
Flags: HMW
LayerCount: 2
Fore
SplineSet
122 171 m 0
 98 172 61 181 41 202 c 0
 8 236 11 300 44 333 c 0
 61 350 93 361 129 361 c 0
 357 361 l 0
 357 334 l 0
 346 334 l 0
 316 334 314 330 314 296 c 0
 314 65 l 0
 314 31 316 27 346 27 c 0
 357 27 l 0
 357 0 l 0
 79 0 l 0
 79 27 l 0
 90 27 l 0
 120 27 122 31 122 65 c 0
 122 171 l 0
199 27 m 0
 237 27 l 0
 237 334 l 0
 199 334 l 0
 199 27 l 0
EndSplineSet
EndChar

StartChar: periodcentered
Encoding: 183 183 135
Width: 139
VWidth: 0
Flags: HMW
LayerCount: 2
Fore
SplineSet
103 88 m 0
 85 70 55 70 36 88 c 0
 18 106 18 137 37 155 c 0
 55 174 85 174 104 155 c 0
 122 137 122 107 103 88 c 0
EndSplineSet
EndChar

StartChar: cedilla
Encoding: 184 184 136
Width: 166
VWidth: 0
Flags: HMW
LayerCount: 2
Fore
SplineSet
63 -34 m 0
 82 -24 103 -26 116 -41 c 0
 130 -54 129 -79 116 -91 c 0
 106 -102 86 -111 54 -111 c 0
 33 -111 18 -103 9 -99 c 0
 20 -80 l 0
 36 -86 60 -91 69 -81 c 0
 75 -75 76 -65 70 -59 c 0
 63 -52 52 -53 43 -57 c 0
 33 -54 l 0
 57 0 l 0
 78 0 l 0
 63 -34 l 0
EndSplineSet
EndChar

StartChar: uni00B9
Encoding: 185 185 137
Width: 172
VWidth: 0
Flags: HMW
LayerCount: 2
Fore
SplineSet
40 158 m 0
 57 158 60 163 60 181 c 0
 60 294 l 0
 60 310 55 316 40 316 c 0
 19 316 l 0
 19 333 l 0
 69 334 82 340 97 353 c 0
 111 353 l 0
 111 181 l 0
 111 163 114 158 131 158 c 0
 152 158 l 0
 152 142 l 0
 19 142 l 0
 19 158 l 0
 40 158 l 0
EndSplineSet
EndChar

StartChar: ordmasculine
Encoding: 186 186 138
Width: 183
VWidth: 0
Flags: HMW
LayerCount: 2
Fore
SplineSet
107 346 m 0
 96 357 80 357 69 346 c 0
 51 328 51 253 69 236 c 0
 80 225 96 225 107 236 c 0
 125 253 125 328 107 346 c 0
152 237 m 0
 120 205 55 206 24 237 c 0
 -9 269 -9 312 24 345 c 0
 55 376 120 377 152 345 c 0
 185 312 185 269 152 237 c 0
5 147 m 0
 5 174 l 0
 169 174 l 0
 169 147 l 0
 5 147 l 0
EndSplineSet
EndChar

StartChar: guillemotright
Encoding: 187 187 139
Width: 250
VWidth: 0
Flags: HMW
LayerCount: 2
Fore
SplineSet
125 129 m 0
 125 117 l 0
 101 102 71 74 46 48 c 0
 36 37 23 47 31 60 c 0
 46 81 58 104 70 123 c 0
 58 142 46 165 31 186 c 0
 23 199 36 209 46 198 c 0
 71 172 101 144 125 129 c 0
225 129 m 0
 225 117 l 0
 201 102 171 74 146 48 c 0
 136 37 123 47 131 60 c 0
 146 81 158 104 170 123 c 0
 158 142 146 165 131 186 c 0
 123 199 136 209 146 198 c 0
 171 172 201 144 225 129 c 0
EndSplineSet
EndChar

StartChar: onequarter
Encoding: 188 188 140
Width: 430
VWidth: 0
Flags: HMW
LayerCount: 2
Fore
SplineSet
60 181 m 0
 60 293 l 0
 60 312 56 316 40 316 c 0
 19 316 l 0
 19 333 l 0
 69 333 82 340 97 353 c 0
 111 353 l 0
 111 181 l 0
 111 162 115 158 131 158 c 0
 152 158 l 0
 152 142 l 0
 19 142 l 0
 19 158 l 0
 40 158 l 0
 56 158 60 162 60 181 c 0
401 16 m 0
 411 16 l 0
 411 0 l 0
 300 0 l 0
 300 16 l 0
 310 16 l 0
 326 16 330 20 330 39 c 0
 330 54 l 0
 243 54 l 0
 243 79 l 0
 359 212 l 0
 381 212 l 0
 381 79 l 0
 411 79 l 0
 411 54 l 0
 381 54 l 0
 381 39 l 0
 381 20 385 16 401 16 c 0
133 0 m 0
 95 0 l 0
 306 353 l 0
 344 353 l 0
 133 0 l 0
330 148 m 0
 269 79 l 0
 330 79 l 0
 330 148 l 0
EndSplineSet
EndChar

StartChar: onehalf
Encoding: 189 189 141
Width: 430
VWidth: 0
Flags: HMW
LayerCount: 2
Fore
SplineSet
131 158 m 0
 152 158 l 0
 152 142 l 0
 19 142 l 0
 19 158 l 0
 40 158 l 0
 57 158 60 163 60 181 c 0
 60 294 l 0
 60 310 55 316 40 316 c 0
 19 316 l 0
 19 333 l 0
 69 334 82 340 97 353 c 0
 111 353 l 0
 111 181 l 0
 111 163 114 158 131 158 c 0
272 191 m 0
 302 221 366 216 394 188 c 0
 414 168 415 133 391 110 c 0
 366 84 328 71 294 43 c 0
 364 43 l 0
 377 44 383 46 386 56 c 0
 392 77 l 0
 411 77 l 0
 403 -1 l 0
 386 0 l 0
 257 0 l 0
 245 -1 l 0
 245 13 l 0
 276 53 321 91 341 118 c 0
 359 143 357 170 342 184 c 0
 332 195 308 197 296 185 c 0
 280 169 299 170 308 160 c 0
 315 153 316 133 306 124 c 0
 295 113 273 113 261 125 c 0
 247 139 248 167 272 191 c 0
95 0 m 0
 306 353 l 0
 344 353 l 0
 133 0 l 0
 95 0 l 0
EndSplineSet
EndChar

StartChar: threequarters
Encoding: 190 190 142
Width: 430
VWidth: 0
Flags: HMW
LayerCount: 2
Fore
SplineSet
401 16 m 0
 411 16 l 0
 411 0 l 0
 300 0 l 0
 300 16 l 0
 310 16 l 0
 326 16 330 20 330 39 c 0
 330 54 l 0
 243 54 l 0
 243 79 l 0
 359 212 l 0
 381 212 l 0
 381 79 l 0
 411 79 l 0
 411 54 l 0
 381 54 l 0
 381 39 l 0
 381 20 385 16 401 16 c 0
60 283 m 0
 50 273 31 274 19 286 c 0
 9 296 9 314 24 329 c 0
 64 370 134 350 152 332 c 0
 167 318 170 289 152 272 c 0
 143 262 125 254 105 252 c 0
 127 249 144 243 156 232 c 0
 172 217 173 183 152 163 c 0
 120 130 43 135 16 162 c 0
 2 177 0 198 12 210 c 0
 23 220 42 220 53 210 c 0
 62 200 62 187 56 180 c 0
 52 176 40 170 46 165 c 0
 57 154 83 148 99 164 c 0
 118 182 115 221 101 235 c 0
 85 251 59 238 52 244 c 0
 46 250 46 255 52 259 c 0
 59 266 85 251 96 263 c 0
 113 280 113 316 99 331 c 0
 87 342 64 339 57 333 c 0
 43 318 86 310 60 283 c 0
133 0 m 0
 95 0 l 0
 306 353 l 0
 344 353 l 0
 133 0 l 0
330 148 m 0
 269 79 l 0
 330 79 l 0
 330 148 l 0
EndSplineSet
EndChar

StartChar: questiondown
Encoding: 191 191 143
Width: 250
VWidth: 0
Flags: HMW
LayerCount: 2
Fore
SplineSet
173 194 m 0
 155 175 125 175 106 194 c 0
 88 212 88 242 107 261 c 0
 125 279 155 279 174 261 c 0
 192 243 192 212 173 194 c 0
47 -82 m 0
 6 -53 -1 15 38 46 c 0
 78 79 124 105 124 132 c 0
 124 152 l 0
 150 152 l 0
 150 100 145 94 116 47 c 0
 88 1 90 -44 112 -65 c 0
 136 -89 175 -75 174 -62 c 0
 174 -57 128 -38 159 8 c 0
 174 29 215 28 229 6 c 0
 244 -16 239 -44 226 -62 c 0
 208 -87 171 -104 125 -104 c 0
 92 -104 66 -96 47 -82 c 0
EndSplineSet
EndChar

StartChar: AE
Encoding: 198 198 150
Width: 490
VWidth: 0
Flags: HMW
LayerCount: 2
Fore
SplineSet
208 320 m 0
 208 336 202 338 198 330 c 0
 112 159 l 0
 208 159 l 0
 208 320 l 0
96 27 m 0
 110 27 l 0
 110 0 l 0
 -15 0 l 0
 -15 27 l 0
 14 27 26 51 36 70 c 0
 138 274 l 0
 158 314 141 334 105 334 c 0
 93 334 l 0
 93 361 l 0
 480 361 l 0
 478 228 l 0
 451 228 l 0
 432 296 409 334 327 334 c 0
 299 334 295 327 295 296 c 0
 295 198 l 0
 318 198 327 199 339 211 c 0
 352 224 356 253 356 268 c 0
 383 268 l 0
 383 96 l 0
 356 96 l 0
 356 112 348 147 336 159 c 0
 324 170 316 172 295 172 c 0
 295 65 l 0
 295 27 307 27 339 27 c 0
 378 27 398 37 419 60 c 0
 438 81 449 114 454 135 c 0
 482 133 l 0
 477 0 l 0
 154 0 l 0
 154 27 l 0
 176 27 l 0
 204 27 208 34 208 65 c 0
 208 129 l 0
 97 129 l 0
 73 81 l 0
 57 46 63 27 96 27 c 0
EndSplineSet
EndChar

StartChar: Ccedilla
Encoding: 199 199 151
Width: 389
VWidth: 0
Flags: HMW
LayerCount: 2
Fore
SplineSet
179 -7 m 0
 140 -3 101 9 74 39 c 0
 -1 120 2 249 81 319 c 0
 160 388 258 376 302 339 c 0
 332 369 l 0
 353 369 l 0
 355 221 l 0
 328 219 l 0
 318 267 308 287 280 316 c 0
 246 349 187 357 152 315 c 0
 96 246 122 100 130 79 c 0
 152 25 220 -4 284 43 c 0
 313 64 327 100 332 128 c 0
 362 120 l 0
 353 81 332 40 300 18 c 0
 275 1 246 -8 200 -8 c 0
 188 -34 l 0
 207 -24 228 -26 241 -41 c 0
 255 -54 254 -79 241 -91 c 0
 231 -102 211 -111 179 -111 c 0
 158 -111 143 -103 134 -99 c 0
 145 -80 l 0
 161 -86 185 -91 194 -81 c 0
 200 -75 201 -65 195 -59 c 0
 188 -52 177 -53 168 -57 c 0
 158 -54 l 0
 179 -7 l 0
EndSplineSet
EndChar

StartChar: Eth
Encoding: 208 208 160
Width: 416
VWidth: 0
Flags: HMW
LayerCount: 2
Fore
SplineSet
64 296 m 0
 64 327 60 334 32 334 c 0
 10 334 l 0
 10 361 l 0
 195 361 l 0
 261 361 288 352 320 334 c 0
 416 280 418 120 352 52 c 0
 322 21 283 0 211 0 c 0
 10 0 l 0
 10 27 l 0
 32 27 l 0
 60 27 64 34 64 65 c 0
 64 174 l 0
 10 174 l 0
 10 201 l 0
 64 201 l 0
 64 296 l 0
151 296 m 0
 151 201 l 0
 209 201 l 0
 209 174 l 0
 151 174 l 0
 151 65 l 0
 151 33 161 27 189 27 c 0
 222 27 251 32 271 62 c 0
 291 90 296 132 296 156 c 0
 296 206 l 0
 296 240 287 282 268 303 c 0
 244 330 225 334 189 334 c 0
 161 334 151 328 151 296 c 0
EndSplineSet
EndChar

StartChar: multiply
Encoding: 215 215 167
Width: 303
VWidth: 0
Flags: HMW
LayerCount: 2
Fore
SplineSet
26 216 m 0
 67 257 l 0
 152 172 l 0
 237 257 l 0
 278 216 l 0
 193 131 l 0
 278 46 l 0
 237 5 l 0
 152 90 l 0
 67 5 l 0
 26 46 l 0
 111 131 l 0
 26 216 l 0
EndSplineSet
EndChar

StartChar: Oslash
Encoding: 216 216 168
Width: 416
VWidth: 0
Flags: HMW
LayerCount: 2
Fore
SplineSet
87 35 m 0
 -2 104 -9 269 107 340 c 0
 171 379 245 377 304 344 c 0
 332 384 l 0
 363 384 l 0
 325 330 l 0
 422 255 426 92 310 21 c 0
 246 -18 171 -18 108 21 c 0
 72 -30 l 0
 41 -30 l 0
 87 35 l 0
293 106 m 0
 301 156 302 233 287 276 c 0
 138 64 l 0
 167 0 232 8 260 36 c 0
 276 52 288 77 293 106 c 0
275 303 m 0
 244 359 185 352 157 324 c 0
 141 308 129 283 124 254 c 0
 116 204 115 145 127 93 c 0
 275 303 l 0
EndSplineSet
EndChar

StartChar: Thorn
Encoding: 222 222 174
Width: 379
VWidth: 0
Flags: HMW
LayerCount: 2
Fore
SplineSet
153 224 m 0
 153 105 l 0
 208 106 236 104 254 123 c 0
 280 150 279 222 255 246 c 0
 244 257 223 262 210 262 c 0
 185 262 l 0
 162 262 153 255 153 224 c 0
185 334 m 0
 157 334 153 327 153 296 c 0
 153 288 l 0
 228 288 l 0
 271 288 313 281 339 255 c 0
 377 216 377 153 341 117 c 0
 301 77 235 78 153 81 c 0
 153 65 l 0
 153 34 157 27 185 27 c 0
 207 27 l 0
 207 0 l 0
 12 0 l 0
 12 27 l 0
 34 27 l 0
 62 27 66 34 66 65 c 0
 66 296 l 0
 66 327 62 334 34 334 c 0
 12 334 l 0
 12 361 l 0
 207 361 l 0
 207 334 l 0
 185 334 l 0
EndSplineSet
EndChar

StartChar: germandbls
Encoding: 223 223 175
Width: 305
VWidth: 0
Flags: HMW
LayerCount: 2
Fore
SplineSet
45 65 m 0
 45 260 l 0
 44 291 51 314 70 333 c 0
 118 381 201 380 247 333 c 0
 277 304 271 262 246 237 c 0
 235 225 214 215 199 211 c 0
 216 208 239 196 259 177 c 0
 299 138 298 68 253 23 c 0
 216 -15 175 -11 147 -3 c 0
 147 27 l 0
 166 15 188 12 198 22 c 0
 211 35 211 59 211 78 c 0
 211 129 l 0
 211 160 209 177 198 188 c 0
 188 197 173 199 155 199 c 0
 143 199 142 217 155 217 c 0
 173 216 181 217 188 224 c 0
 203 239 201 318 185 334 c 0
 169 351 142 350 128 336 c 0
 118 326 115 312 115 300 c 0
 115 0 l 0
 3 0 l 0
 3 27 l 0
 13 27 l 0
 42 27 45 31 45 65 c 0
EndSplineSet
EndChar

StartChar: aring
Encoding: 229 229 181
Width: 305
VWidth: 0
Flags: HMW
LayerCount: 2
Fore
SplineSet
177 308 m 0
 187 318 187 335 176 345 c 0
 166 356 150 356 139 345 c 0
 129 335 129 319 140 308 c 0
 150 298 166 298 177 308 c 0
119 289 m 0
 99 309 99 345 120 365 c 0
 141 387 175 387 196 365 c 0
 217 345 217 311 195 289 c 0
 175 268 141 268 119 289 c 0
EndSplineSet
Refer: 65 97 N 1 0 0 1 0 0 0
EndChar

StartChar: ae
Encoding: 230 230 182
Width: 435
VWidth: 0
Flags: HMW
LayerCount: 2
Fore
SplineSet
340 156 m 0
 340 175 342 196 328 209 c 0
 313 224 289 224 274 209 c 0
 259 194 251 164 252 142 c 0
 327 142 l 0
 338 142 340 149 340 156 c 0
179 69 m 0
 179 117 l 0
 160 117 130 114 115 99 c 0
 95 79 95 50 107 38 c 0
 124 20 162 22 179 69 c 0
179 143 m 0
 179 167 l 0
 179 181 178 196 169 205 c 0
 153 221 110 218 101 209 c 0
 97 205 98 199 103 195 c 0
 114 184 112 166 98 152 c 0
 83 137 56 136 40 152 c 0
 25 167 23 195 43 214 c 0
 81 253 182 253 220 215 c 0
 250 245 338 261 389 211 c 0
 411 188 419 164 419 114 c 0
 249 114 l 0
 249 88 253 63 274 42 c 0
 299 16 347 22 369 44 c 0
 381 56 388 68 394 81 c 0
 420 69 l 0
 414 55 405 39 392 26 c 0
 351 -15 267 -28 200 39 c 0
 148 -14 67 -23 28 17 c 0
 8 38 13 76 34 97 c 0
 56 119 105 131 179 143 c 0
EndSplineSet
EndChar

StartChar: ccedilla
Encoding: 231 231 183
Width: 278
VWidth: 0
Flags: HMW
LayerCount: 2
Fore
SplineSet
122 -111 m 0
 101 -111 86 -103 77 -99 c 0
 88 -80 l 0
 104 -86 128 -91 137 -81 c 0
 143 -75 144 -65 138 -59 c 0
 131 -52 120 -53 111 -57 c 0
 101 -54 l 0
 122 -6 l 0
 107 -3 84 4 66 18 c 0
 4 64 -4 156 58 209 c 0
 112 255 203 251 243 214 c 0
 260 197 263 165 244 145 c 0
 229 128 198 129 183 146 c 0
 149 187 203 195 182 214 c 0
 173 222 135 220 120 196 c 0
 91 151 98 71 128 44 c 0
 171 7 223 37 238 89 c 0
 263 81 l 0
 246 28 213 -8 143 -8 c 0
 131 -34 l 0
 150 -24 171 -26 184 -41 c 0
 198 -54 197 -79 184 -91 c 0
 174 -102 154 -111 122 -111 c 0
EndSplineSet
EndChar

StartChar: igrave
Encoding: 236 236 188
Width: 185
VWidth: 0
Flags: HMW
LayerCount: 2
Fore
SplineSet
27 205 m 0
 14 205 l 0
 14 232 l 0
 132 238 l 0
 132 51 l 0
 132 33 137 27 159 27 c 0
 171 27 l 0
 171 0 l 0
 14 0 l 0
 14 27 l 0
 27 27 l 0
 49 27 54 33 54 51 c 0
 54 181 l 0
 54 199 49 205 27 205 c 0
EndSplineSet
Refer: 64 96 N 1 0 0 1 10 0 0
EndChar

StartChar: eth
Encoding: 240 240 192
Width: 305
VWidth: 0
Flags: HMW
LayerCount: 2
Fore
SplineSet
55 30 m 0
 3 77 3 158 55 205 c 0
 103 248 156 248 192 237 c 0
 190 257 178 290 164 302 c 0
 122 277 l 0
 107 299 l 0
 143 320 l 0
 128 335 109 345 86 347 c 0
 86 373 l 0
 119 373 151 362 180 341 c 0
 227 369 l 0
 242 347 l 0
 202 324 l 0
 257 280 340 111 251 30 c 0
 194 -21 112 -21 55 30 c 0
116 38 m 0
 136 8 168 8 188 38 c 0
 207 66 207 169 188 197 c 0
 168 227 136 227 116 197 c 0
 97 169 97 66 116 38 c 0
EndSplineSet
EndChar

StartChar: divide
Encoding: 247 247 199
Width: 303
VWidth: 0
Flags: HMW
LayerCount: 2
Fore
SplineSet
128 65 m 0
 141 79 163 79 177 65 c 0
 191 51 191 29 177 15 c 0
 163 2 141 2 127 15 c 0
 113 28 113 51 128 65 c 0
128 197 m 0
 113 210 113 233 127 247 c 0
 141 260 163 260 177 247 c 0
 191 232 191 210 177 197 c 0
 163 183 141 183 128 197 c 0
278 160 m 0
 278 102 l 0
 26 102 l 0
 26 160 l 0
 278 160 l 0
EndSplineSet
EndChar

StartChar: oslash
Encoding: 248 248 200
Width: 305
VWidth: 0
Flags: HMW
LayerCount: 2
Fore
SplineSet
101 1 m 0
 69 -56 l 0
 43 -56 l 0
 81 11 l 0
 -4 60 3 158 55 205 c 0
 112 256 179 245 205 234 c 0
 232 283 l 0
 258 283 l 0
 225 225 l 0
 310 173 303 77 251 30 c 0
 194 -21 132 -10 101 1 c 0
116 197 m 0
 97 169 100 91 107 60 c 0
 187 202 l 0
 169 224 136 227 116 197 c 0
119 33 m 0
 133 12 170 8 190 38 c 0
 209 66 206 150 198 177 c 0
 119 33 l 0
EndSplineSet
EndChar

StartChar: thorn
Encoding: 254 254 206
Width: 333
VWidth: 0
Flags: HMW
LayerCount: 2
Fore
SplineSet
219 188 m 0
 205 212 168 221 146 188 c 0
 120 150 125 75 144 47 c 0
 166 15 201 20 218 47 c 0
 235 74 233 166 219 188 c 0
23 307 m 0
 10 307 l 0
 10 334 l 0
 125 340 l 0
 125 204 l 0
 180 260 241 253 286 205 c 0
 326 162 326 82 286 33 c 0
 243 -19 169 -21 128 25 c 0
 128 -52 l 0
 128 -70 133 -76 155 -76 c 0
 172 -76 l 0
 172 -103 l 0
 10 -103 l 0
 10 -76 l 0
 23 -76 l 0
 45 -76 50 -70 50 -52 c 0
 50 283 l 0
 50 301 45 307 23 307 c 0
EndSplineSet
EndChar

